  0
SECTION
  2
HEADER
  9
$ACADVER
  1
AC1015
  9
$ACADMAINTVER
 70
     6
  9
$DWGCODEPAGE
  3
ANSI_1252
  9
$INSBASE
 10
0.0
 20
0.0
 30
0.0
  9
$EXTMIN
 10
0.0
 20
0.0
 30
0.0
  9
$EXTMAX
 10
215.9
 20
279.4
 30
0.0
  9
$LIMMIN
 10
0.0
 20
0.0
  9
$LIMMAX
 10
215.9
 20
279.4
  9
$ORTHOMODE
 70
     0
  9
$REGENMODE
 70
     1
  9
$FILLMODE
 70
     1
  9
$QTEXTMODE
 70
     0
  9
$MIRRTEXT
 70
     1
  9
$LTSCALE
 40
1.0
  9
$ATTMODE
 70
     1
  9
$TEXTSIZE
 40
3.5
  9
$TRACEWID
 40
1.0
  9
$TEXTSTYLE
  7
Standard
  9
$CLAYER
  8
0
  9
$CELTYPE
  6
ByLayer
  9
$CECOLOR
 62
   256
  9
$CELTSCALE
 40
1.0
  9
$DISPSILH
 70
     0
  9
$DIMSCALE
 40
1.0
  9
$DIMASZ
 40
3.302
  9
$DIMEXO
 40
1.0
  9
$DIMDLI
 40
3.75
  9
$DIMRND
 40
0.0
  9
$DIMDLE
 40
0.0
  9
$DIMEXE
 40
1.0
  9
$DIMTP
 40
0.0
  9
$DIMTM
 40
0.0
  9
$DIMTXT
 40
3.5
  9
$DIMCEN
 40
2.5
  9
$DIMTSZ
 40
0.0
  9
$DIMTOL
 70
     0
  9
$DIMLIM
 70
     0
  9
$DIMTIH
 70
     1
  9
$DIMTOH
 70
     1
  9
$DIMSE1
 70
     0
  9
$DIMSE2
 70
     0
  9
$DIMTAD
 70
     1
  9
$DIMZIN
 70
     1
  9
$DIMBLK
  1

  9
$DIMASO
 70
     1
  9
$DIMSHO
 70
     1
  9
$DIMPOST
  1

  9
$DIMAPOST
  1

  9
$DIMALT
 70
     0
  9
$DIMALTD
 70
     3
  9
$DIMALTF
 40
0.0393700787
  9
$DIMLFAC
 40
1.0
  9
$DIMTOFL
 70
     1
  9
$DIMTVP
 40
0.0
  9
$DIMTIX
 70
     0
  9
$DIMSOXD
 70
     0
  9
$DIMSAH
 70
     0
  9
$DIMBLK1
  1

  9
$DIMBLK2
  1

  9
$DIMSTYLE
  2
ISO-25
  9
$DIMCLRD
 70
     0
  9
$DIMCLRE
 70
     0
  9
$DIMCLRT
 70
     0
  9
$DIMTFAC
 40
1.0
  9
$DIMGAP
 40
1.524
  9
$DIMJUST
 70
     0
  9
$DIMSD1
 70
     0
  9
$DIMSD2
 70
     0
  9
$DIMTOLJ
 70
     0
  9
$DIMTZIN
 70
     1
  9
$DIMALTZ
 70
     0
  9
$DIMALTTZ
 70
     0
  9
$DIMUPT
 70
     0
  9
$DIMDEC
 70
     2
  9
$DIMTDEC
 70
     2
  9
$DIMALTU
 70
     2
  9
$DIMALTTD
 70
     3
  9
$DIMTXSTY
  7
Standard
  9
$DIMAUNIT
 70
     0
  9
$DIMADEC
 70
     2
  9
$DIMALTRND
 40
0.0
  9
$DIMAZIN
 70
     0
  9
$DIMDSEP
 70
    44
  9
$DIMATFIT
 70
     3
  9
$DIMFRAC
 70
     0
  9
$DIMLDRBLK
  1

  9
$DIMLUNIT
 70
     2
  9
$DIMLWD
 70
    -2
  9
$DIMLWE
 70
    -2
  9
$DIMTMOVE
 70
     0
  9
$LUNITS
 70
     2
  9
$LUPREC
 70
     2
  9
$SKETCHINC
 40
1.0
  9
$FILLETRAD
 40
0.0
  9
$AUNITS
 70
     0
  9
$AUPREC
 70
     2
  9
$MENU
  1
.
  9
$ELEVATION
 40
0.0
  9
$PELEVATION
 40
0.0
  9
$THICKNESS
 40
0.0
  9
$LIMCHECK
 70
     0
  9
$CHAMFERA
 40
0.0
  9
$CHAMFERB
 40
0.0
  9
$CHAMFERC
 40
0.0
  9
$CHAMFERD
 40
0.0
  9
$SKPOLY
 70
     0
  9
$TDCREATE
 40
2460937.55793294
  9
$TDUCREATE
 40
2460937.474599607
  9
$TDUPDATE
 40
2460937.557933322
  9
$TDUUPDATE
 40
2460937.474599988
  9
$TDINDWG
 40
0.0000000116
  9
$TDUSRTIMER
 40
0.0000000116
  9
$USRTIMER
 70
     1
  9
$ANGBASE
 50
0.0
  9
$ANGDIR
 70
     0
  9
$PDMODE
 70
     0
  9
$PDSIZE
 40
-1.0
  9
$PLINEWID
 40
0.0
  9
$SPLFRAME
 70
     0
  9
$SPLINETYPE
 70
     6
  9
$SPLINESEGS
 70
     8
  9
$HANDSEED
  5
FF
  9
$SURFTAB1
 70
     6
  9
$SURFTAB2
 70
     6
  9
$SURFTYPE
 70
     6
  9
$SURFU
 70
     6
  9
$SURFV
 70
     6
  9
$UCSBASE
  2

  9
$UCSNAME
  2

  9
$UCSORG
 10
0.0
 20
0.0
 30
0.0
  9
$UCSXDIR
 10
1.0
 20
0.0
 30
0.0
  9
$UCSYDIR
 10
0.0
 20
1.0
 30
0.0
  9
$UCSORTHOREF
  2

  9
$UCSORTHOVIEW
 70
     0
  9
$UCSORGTOP
 10
0.0
 20
0.0
 30
0.0
  9
$UCSORGBOTTOM
 10
0.0
 20
0.0
 30
0.0
  9
$UCSORGLEFT
 10
0.0
 20
0.0
 30
0.0
  9
$UCSORGRIGHT
 10
0.0
 20
0.0
 30
0.0
  9
$UCSORGFRONT
 10
0.0
 20
0.0
 30
0.0
  9
$UCSORGBACK
 10
0.0
 20
0.0
 30
0.0
  9
$PUCSBASE
  2

  9
$PUCSNAME
  2

  9
$PUCSORG
 10
0.0
 20
0.0
 30
0.0
  9
$PUCSXDIR
 10
1.0
 20
0.0
 30
0.0
  9
$PUCSYDIR
 10
0.0
 20
1.0
 30
0.0
  9
$PUCSORTHOREF
  2

  9
$PUCSORTHOVIEW
 70
     0
  9
$PUCSORGTOP
 10
0.0
 20
0.0
 30
0.0
  9
$PUCSORGBOTTOM
 10
0.0
 20
0.0
 30
0.0
  9
$PUCSORGLEFT
 10
0.0
 20
0.0
 30
0.0
  9
$PUCSORGRIGHT
 10
0.0
 20
0.0
 30
0.0
  9
$PUCSORGFRONT
 10
0.0
 20
0.0
 30
0.0
  9
$PUCSORGBACK
 10
0.0
 20
0.0
 30
0.0
  9
$USERI1
 70
     0
  9
$USERI2
 70
     0
  9
$USERI3
 70
     0
  9
$USERI4
 70
     0
  9
$USERI5
 70
     0
  9
$USERR1
 40
0.0
  9
$USERR2
 40
0.0
  9
$USERR3
 40
0.0
  9
$USERR4
 40
0.0
  9
$USERR5
 40
0.0
  9
$WORLDVIEW
 70
     1
  9
$SHADEDGE
 70
     3
  9
$SHADEDIF
 70
    70
  9
$TILEMODE
 70
     1
  9
$MAXACTVP
 70
    64
  9
$PINSBASE
 10
0.0
 20
0.0
 30
0.0
  9
$PLIMCHECK
 70
     0
  9
$PEXTMIN
 10
1.0000000000E+20
 20
1.0000000000E+20
 30
1.0000000000E+20
  9
$PEXTMAX
 10
-1.0000000000E+20
 20
-1.0000000000E+20
 30
-1.0000000000E+20
  9
$PLIMMIN
 10
0.0
 20
0.0
  9
$PLIMMAX
 10
420.0
 20
297.0
  9
$UNITMODE
 70
     0
  9
$VISRETAIN
 70
     1
  9
$PLINEGEN
 70
     0
  9
$PSLTSCALE
 70
     1
  9
$TREEDEPTH
 70
  3020
  9
$CMLSTYLE
  2
Standard
  9
$CMLJUST
 70
     0
  9
$CMLSCALE
 40
20.0
  9
$PROXYGRAPHICS
 70
     1
  9
$MEASUREMENT
 70
     1
  9
$CELWEIGHT
370
    -1
  9
$ENDCAPS
280
     0
  9
$JOINSTYLE
280
     0
  9
$LWDISPLAY
290
     1
  9
$INSUNITS
 70
     4
  9
$HYPERLINKBASE
  1

  9
$STYLESHEET
  1

  9
$XEDIT
290
     1
  9
$CEPSNTYPE
380
     0
  9
$PSTYLEMODE
290
     1
  9
$FINGERPRINTGUID
  2
{7aa5a5cb-8fb8-4723-a73a-8175f40c1893}
  9
$VERSIONGUID
  2
{FAEB1C32-E019-11D5-929B-00C0DF256EC4}
  9
$EXTNAMES
290
     1
  9
$PSVPSCALE
 40
0.0
  9
$OLESTARTUP
290
     0
  0
ENDSEC
  0
SECTION
  2
CLASSES
  0
CLASS
  1
ACDBDICTIONARYWDFLT
  2
AcDbDictionaryWithDefault
  3
ObjectDBX Classes
 90
        0
280
     0
281
     0
  0
CLASS
  1
VISUALSTYLE
  2
AcDbVisualStyle
  3
ObjectDBX Classes
 90
     4095
280
     0
281
     0
  0
CLASS
  1
MATERIAL
  2
AcDbMaterial
  3
ObjectDBX Classes
 90
     1153
280
     0
281
     0
  0
CLASS
  1
SCALE
  2
AcDbScale
  3
ObjectDBX Classes
 90
     1153
280
     0
281
     0
  0
CLASS
  1
TABLESTYLE
  2
AcDbTableStyle
  3
ObjectDBX Classes
 90
     4095
280
     0
281
     0
  0
CLASS
  1
MLEADERSTYLE
  2
AcDbMLeaderStyle
  3
ACDB_MLEADERSTYLE_CLASS
 90
     4095
280
     0
281
     0
  0
CLASS
  1
SUN
  2
AcDbSun
  3
SCENEOE
 90
     1153
280
     0
281
     0
  0
CLASS
  1
ACDBPLACEHOLDER
  2
AcDbPlaceHolder
  3
ObjectDBX Classes
 90
        0
280
     0
281
     0
  0
CLASS
  1
LAYOUT
  2
AcDbLayout
  3
ObjectDBX Classes
 90
        0
280
     0
281
     0
  0
ENDSEC
  0
SECTION
  2
TABLES
  0
TABLE
  2
VPORT
  5
8
330
0
100
AcDbSymbolTable
 70
     1
  0
VPORT
  5
29
330
8
100
AcDbSymbolTableRecord
100
AcDbViewportTableRecord
  2
*Active
 70
     0
 10
0.0
 20
0.0
 11
1.0
 21
1.0
 12
107.95
 22
139.7
 13
0.0
 23
0.0
 14
10.0
 24
10.0
 15
10.0
 25
10.0
 16
0.0
 26
0.0
 36
1.0
 17
0.0
 27
0.0
 37
0.0
 40
279.4
 41
0.7727272727
 42
50.0
 43
0.0
 44
0.0
 50
0.0
 51
0.0
 71
     0
 72
  2000
 73
     1
 74
     3
 75
     0
 76
     0
 77
     0
 78
     0
281
     0
 65
     1
110
0.0
120
0.0
130
0.0
111
1.0
121
0.0
131
0.0
112
0.0
122
1.0
132
0.0
 79
     0
146
0.0
  0
ENDTAB
  0
TABLE
  2
LTYPE
  5
5
330
0
100
AcDbSymbolTable
 70
     6
  0
LTYPE
  5
14
330
5
100
AcDbSymbolTableRecord
100
AcDbLinetypeTableRecord
  2
ByBlock
 70
     0
  3

 72
    65
 73
     0
 40
0.0
  0
LTYPE
  5
15
330
5
100
AcDbSymbolTableRecord
100
AcDbLinetypeTableRecord
  2
ByLayer
 70
     0
  3

 72
    65
 73
     0
 40
0.0
  0
LTYPE
  5
16
330
5
100
AcDbSymbolTableRecord
100
AcDbLinetypeTableRecord
  2
Continuous
 70
     0
  3
Solid line
 72
    65
 73
     0
 40
0.0
  0
LTYPE
  5
5E
330
5
100
AcDbSymbolTableRecord
100
AcDbLinetypeTableRecord
  2
HIDDEN
 70
     0
  3
Hidden __ __ __ __ __ __ __ __ __ __ __ __ __ __
 72
    65
 73
     2
 40
1.905
 49
1.27
 74
     0
 49
-0.635
 74
     0
  0
LTYPE
  5
5F
330
5
100
AcDbSymbolTableRecord
100
AcDbLinetypeTableRecord
  2
PHANTOM
 70
     0
  3
Phantom ______  __  __  ______  __  __  ______
 72
    65
 73
     6
 40
12.7
 49
6.35
 74
     0
 49
-1.27
 74
     0
 49
1.27
 74
     0
 49
-1.27
 74
     0
 49
1.27
 74
     0
 49
-1.27
 74
     0
  0
LTYPE
  5
60
330
5
100
AcDbSymbolTableRecord
100
AcDbLinetypeTableRecord
  2
CENTER
 70
     0
  3
Center ____ _ ____ _ ____ _ ____ _ ____ _ ____
 72
    65
 73
     4
 40
10.16
 49
6.35
 74
     0
 49
-1.27
 74
     0
 49
1.27
 74
     0
 49
-1.27
 74
     0
  0
LTYPE
  5
61
330
5
100
AcDbSymbolTableRecord
100
AcDbLinetypeTableRecord
  2
CENTERX2
 70
     0
  3
Center (2x) ________  __  ________  __  _____
 72
    65
 73
     4
 40
20.32
 49
12.7
 74
     0
 49
-2.54
 74
     0
 49
2.54
 74
     0
 49
-2.54
 74
     0
  0
LTYPE
  5
62
330
5
100
AcDbSymbolTableRecord
100
AcDbLinetypeTableRecord
  2
DOT2
 70
     0
  3
Dot (.5x) ........................................
 72
    65
 73
     2
 40
0.635
 49
0.0
 74
     0
 49
-0.635
 74
     0
  0
ENDTAB
  0
TABLE
  2
LAYER
  5
2
330
0
100
AcDbSymbolTable
 70
     2
  0
LAYER
  5
10
330
2
100
AcDbSymbolTableRecord
100
AcDbLayerTableRecord
  2
0
 70
     0
 62
     7
  6
Continuous
370
    -3
390
F
  0
LAYER
  5
63
330
2
100
AcDbSymbolTableRecord
100
AcDbLayerTableRecord
  2
FORMAT
 70
     0
 62
     7
  6
Continuous
370
    -3
390
F
  0
ENDTAB
  0
TABLE
  2
STYLE
  5
3
330
0
100
AcDbSymbolTable
 70
     1
  0
STYLE
  5
11
330
3
100
AcDbSymbolTableRecord
100
AcDbTextStyleTableRecord
  2
Standard
 70
     0
 40
0.0
 41
1.0
 50
0.0
 71
     0
 42
3.5
  3
txt
  4

  0
ENDTAB
  0
TABLE
  2
VIEW
  5
6
330
0
100
AcDbSymbolTable
 70
     0
  0
ENDTAB
  0
TABLE
  2
UCS
  5
7
330
0
100
AcDbSymbolTable
 70
     0
  0
ENDTAB
  0
TABLE
  2
APPID
  5
9
330
0
100
AcDbSymbolTable
 70
     1
  0
APPID
  5
12
330
9
100
AcDbSymbolTableRecord
100
AcDbRegAppTableRecord
  2
ACAD
 70
     0
  0
ENDTAB
  0
TABLE
  2
DIMSTYLE
  5
A
330
0
100
AcDbSymbolTable
 70
     1
100
AcDbDimStyleTable
  0
DIMSTYLE
105
27
330
A
100
AcDbSymbolTableRecord
100
AcDbDimStyleTableRecord
  2
ISO-25
 70
     0
 41
2.5
 42
0.625
 43
3.75
 44
1.25
 73
     0
 74
     0
 77
     1
 78
     8
140
2.5
141
2.5
143
0.0393700787
147
0.625
171
     3
172
     1
178
     0
271
     2
272
     2
274
     3
278
    44
283
     0
284
     8
340
11
  0
ENDTAB
  0
TABLE
  2
BLOCK_RECORD
  5
1
330
0
100
AcDbSymbolTable
 70
     4
  0
BLOCK_RECORD
  5
1F
330
1
100
AcDbSymbolTableRecord
100
AcDbBlockTableRecord
  2
*Model_Space
340
22
  0
BLOCK_RECORD
  5
1B
330
1
100
AcDbSymbolTableRecord
100
AcDbBlockTableRecord
  2
*Paper_Space
340
1E
  0
BLOCK_RECORD
  5
23
330
1
100
AcDbSymbolTableRecord
100
AcDbBlockTableRecord
  2
*Paper_Space0
340
26
  0
BLOCK_RECORD
  5
DA
330
1
100
AcDbSymbolTableRecord
100
AcDbBlockTableRecord
  2
SW_CENTERMARKSYMBOL_0
340
0
102
{BLKREFS
331
E5
102
}
  0
BLOCK_RECORD
  5
E6
330
1
100
AcDbSymbolTableRecord
100
AcDbBlockTableRecord
  2
SW_CENTERMARKSYMBOL_1
340
0
102
{BLKREFS
331
F1
102
}
  0
BLOCK_RECORD
  5
F2
330
1
100
AcDbSymbolTableRecord
100
AcDbBlockTableRecord
  2
SW_CENTERMARKSYMBOL_2
340
0
102
{BLKREFS
331
FD
102
}
  0
ENDTAB
  0
ENDSEC
  0
SECTION
  2
BLOCKS
  0
BLOCK
  5
20
330
1F
100
AcDbEntity
  8
0
100
AcDbBlockBegin
  2
*Model_Space
 70
     0
 10
0.0
 20
0.0
 30
0.0
  3
*Model_Space
  1

  0
ENDBLK
  5
21
330
1F
100
AcDbEntity
  8
0
100
AcDbBlockEnd
  0
BLOCK
  5
1C
330
1B
100
AcDbEntity
 67
     1
  8
0
100
AcDbBlockBegin
  2
*Paper_Space
 70
     0
 10
0.0
 20
0.0
 30
0.0
  3
*Paper_Space
  1

  0
ENDBLK
  5
1D
330
1B
100
AcDbEntity
 67
     1
  8
0
100
AcDbBlockEnd
  0
BLOCK
  5
24
330
23
100
AcDbEntity
  8
0
100
AcDbBlockBegin
  2
*Paper_Space0
 70
     0
 10
0.0
 20
0.0
 30
0.0
  3
*Paper_Space0
  1

  0
ENDBLK
  5
25
330
23
100
AcDbEntity
  8
0
100
AcDbBlockEnd
  0
BLOCK
  5
DB
330
DA
100
AcDbEntity
  8
0
100
AcDbBlockBegin
  2
SW_CENTERMARKSYMBOL_0
 70
     0
 10
0.0
 20
0.0
 30
0.0
  3
SW_CENTERMARKSYMBOL_0
  1

  0
LINE
  5
DD
330
DA
100
AcDbEntity
  8
0
  6
Continuous
 62
     0
370
    18
100
AcDbLine
 10
0.0
 20
0.0
 30
0.0
 11
0.0
 21
2.5
 31
0.0
  0
LINE
  5
DE
330
DA
100
AcDbEntity
  8
0
  6
Continuous
 62
     0
370
    18
100
AcDbLine
 10
0.0
 20
0.0
 30
0.0
 11
-2.5
 21
0.0
 31
0.0
  0
LINE
  5
DF
330
DA
100
AcDbEntity
  8
0
  6
Continuous
 62
     0
370
    18
100
AcDbLine
 10
0.0
 20
0.0
 30
0.0
 11
0.0
 21
-2.5
 31
0.0
  0
LINE
  5
E0
330
DA
100
AcDbEntity
  8
0
  6
Continuous
 62
     0
370
    18
100
AcDbLine
 10
0.0
 20
0.0
 30
0.0
 11
2.5
 21
0.0
 31
0.0
  0
LINE
  5
E1
330
DA
100
AcDbEntity
  8
0
  6
Continuous
 62
     0
370
    18
100
AcDbLine
 10
0.0
 20
2.5
 30
0.0
 11
0.0
 21
2.6616629013
 31
0.0
  0
LINE
  5
E2
330
DA
100
AcDbEntity
  8
0
  6
Continuous
 62
     0
370
    18
100
AcDbLine
 10
-2.5
 20
0.0
 30
0.0
 11
-2.6616629013
 21
0.0
 31
0.0
  0
LINE
  5
E3
330
DA
100
AcDbEntity
  8
0
  6
Continuous
 62
     0
370
    18
100
AcDbLine
 10
0.0
 20
-2.5
 30
0.0
 11
0.0
 21
-2.6616629013
 31
0.0
  0
LINE
  5
E4
330
DA
100
AcDbEntity
  8
0
  6
Continuous
 62
     0
370
    18
100
AcDbLine
 10
2.5
 20
0.0
 30
0.0
 11
2.6616629013
 21
0.0
 31
0.0
  0
ENDBLK
  5
DC
330
DA
100
AcDbEntity
  8
0
100
AcDbBlockEnd
  0
BLOCK
  5
E7
330
E6
100
AcDbEntity
  8
0
100
AcDbBlockBegin
  2
SW_CENTERMARKSYMBOL_1
 70
     0
 10
0.0
 20
0.0
 30
0.0
  3
SW_CENTERMARKSYMBOL_1
  1

  0
LINE
  5
E9
330
E6
100
AcDbEntity
  8
0
  6
Continuous
 62
     0
370
    18
100
AcDbLine
 10
0.0
 20
0.0
 30
0.0
 11
0.0
 21
2.5
 31
0.0
  0
LINE
  5
EA
330
E6
100
AcDbEntity
  8
0
  6
Continuous
 62
     0
370
    18
100
AcDbLine
 10
0.0
 20
0.0
 30
0.0
 11
-2.5
 21
0.0
 31
0.0
  0
LINE
  5
EB
330
E6
100
AcDbEntity
  8
0
  6
Continuous
 62
     0
370
    18
100
AcDbLine
 10
0.0
 20
0.0
 30
0.0
 11
0.0
 21
-2.5
 31
0.0
  0
LINE
  5
EC
330
E6
100
AcDbEntity
  8
0
  6
Continuous
 62
     0
370
    18
100
AcDbLine
 10
0.0
 20
0.0
 30
0.0
 11
2.5
 21
0.0
 31
0.0
  0
LINE
  5
ED
330
E6
100
AcDbEntity
  8
0
  6
Continuous
 62
     0
370
    18
100
AcDbLine
 10
0.0
 20
2.5
 30
0.0
 11
0.0
 21
2.6563608594
 31
0.0
  0
LINE
  5
EE
330
E6
100
AcDbEntity
  8
0
  6
Continuous
 62
     0
370
    18
100
AcDbLine
 10
-2.5
 20
0.0
 30
0.0
 11
-2.6563608594
 21
0.0
 31
0.0
  0
LINE
  5
EF
330
E6
100
AcDbEntity
  8
0
  6
Continuous
 62
     0
370
    18
100
AcDbLine
 10
0.0
 20
-2.5
 30
0.0
 11
0.0
 21
-2.6563608594
 31
0.0
  0
LINE
  5
F0
330
E6
100
AcDbEntity
  8
0
  6
Continuous
 62
     0
370
    18
100
AcDbLine
 10
2.5
 20
0.0
 30
0.0
 11
2.6563608594
 21
0.0
 31
0.0
  0
ENDBLK
  5
E8
330
E6
100
AcDbEntity
  8
0
100
AcDbBlockEnd
  0
BLOCK
  5
F3
330
F2
100
AcDbEntity
  8
0
100
AcDbBlockBegin
  2
SW_CENTERMARKSYMBOL_2
 70
     0
 10
0.0
 20
0.0
 30
0.0
  3
SW_CENTERMARKSYMBOL_2
  1

  0
LINE
  5
F5
330
F2
100
AcDbEntity
  8
0
  6
Continuous
 62
     0
370
    18
100
AcDbLine
 10
0.0
 20
0.0
 30
0.0
 11
0.0
 21
2.5
 31
0.0
  0
LINE
  5
F6
330
F2
100
AcDbEntity
  8
0
  6
Continuous
 62
     0
370
    18
100
AcDbLine
 10
0.0
 20
0.0
 30
0.0
 11
-2.5
 21
0.0
 31
0.0
  0
LINE
  5
F7
330
F2
100
AcDbEntity
  8
0
  6
Continuous
 62
     0
370
    18
100
AcDbLine
 10
0.0
 20
0.0
 30
0.0
 11
0.0
 21
-2.5
 31
0.0
  0
LINE
  5
F8
330
F2
100
AcDbEntity
  8
0
  6
Continuous
 62
     0
370
    18
100
AcDbLine
 10
0.0
 20
0.0
 30
0.0
 11
2.5
 21
0.0
 31
0.0
  0
LINE
  5
F9
330
F2
100
AcDbEntity
  8
0
  6
Continuous
 62
     0
370
    18
100
AcDbLine
 10
0.0
 20
2.5
 30
0.0
 11
0.0
 21
2.8409814002
 31
0.0
  0
LINE
  5
FA
330
F2
100
AcDbEntity
  8
0
  6
Continuous
 62
     0
370
    18
100
AcDbLine
 10
-2.5
 20
0.0
 30
0.0
 11
-2.8409814002
 21
0.0
 31
0.0
  0
LINE
  5
FB
330
F2
100
AcDbEntity
  8
0
  6
Continuous
 62
     0
370
    18
100
AcDbLine
 10
0.0
 20
-2.5
 30
0.0
 11
0.0
 21
-2.8409814002
 31
0.0
  0
LINE
  5
FC
330
F2
100
AcDbEntity
  8
0
  6
Continuous
 62
     0
370
    18
100
AcDbLine
 10
2.5
 20
0.0
 30
0.0
 11
2.8409814002
 21
0.0
 31
0.0
  0
ENDBLK
  5
F4
330
F2
100
AcDbEntity
  8
0
100
AcDbBlockEnd
  0
ENDSEC
  0
SECTION
  2
ENTITIES
  0
ARC
  5
64
330
1F
100
AcDbEntity
  8
0
  6
Continuous
 62
     7
370
    25
100
AcDbCircle
 10
114.4532637183
 20
182.4558872448
 30
0.0
 40
0.1472755290477608
100
AcDbArc
 50
180.0
 51
0.0
  0
LINE
  5
65
330
1F
100
AcDbEntity
  8
0
  6
Continuous
 62
     7
370
    25
100
AcDbLine
 10
114.3059881893
 20
184.3511397097
 30
0.0
 11
114.3059881893
 21
182.4558872448
 31
0.0
  0
ARC
  5
66
330
1F
100
AcDbEntity
  8
0
  6
Continuous
 62
     7
370
    25
100
AcDbCircle
 10
114.4532637183
 20
184.3511397097
 30
0.0
 40
0.1472755290477608
100
AcDbArc
 50
0.0
 51
180.0
  0
LINE
  5
67
330
1F
100
AcDbEntity
  8
0
  6
Continuous
 62
     7
370
    25
100
AcDbLine
 10
114.6005392474
 20
184.3511397097
 30
0.0
 11
114.6005392474
 21
182.4558872448
 31
0.0
  0
ELLIPSE
  5
68
330
1F
100
AcDbEntity
  8
0
  6
Continuous
 62
     7
370
    25
100
AcDbEllipse
 10
116.9543451993
 20
184.1763656098
 30
0.0
 11
0.1000064261991014
 21
0.1380316393990029
 31
0.0
210
0.0
220
0.0
230
1.0
 40
0.8969406321
 41
0.0
 42
6.283185307179586
  0
ELLIPSE
  5
69
330
1F
100
AcDbEntity
  8
0
  6
Continuous
 62
     7
370
    25
100
AcDbEllipse
 10
112.580811558
 20
183.7352502208
 30
0.0
 11
0.1970339223848754
 21
0.0
 31
0.0
210
0.0
220
0.0
230
1.0
 40
0.7821444731
 41
0.0
 42
6.283185307179586
  0
ELLIPSE
  5
6A
330
1F
100
AcDbEntity
  8
0
  6
Continuous
 62
     7
370
    25
100
AcDbEllipse
 10
112.8697659207
 20
184.2660654369
 30
0.0
 11
0.1797938256506484
 21
0.1285563207752034
 31
0.0
210
0.0
220
0.0
230
1.0
 40
0.7150207762
 41
0.0
 42
6.283185307179586
  0
ELLIPSE
  5
6B
330
1F
100
AcDbEntity
  8
0
  6
Continuous
 62
     7
370
    25
100
AcDbEllipse
 10
113.1779839075
 20
183.7352502208
 30
0.0
 11
-0.1643829263091447
 21
0.0821914631546008
 31
0.0
210
0.0
220
0.0
230
1.0
 40
0.9375
 41
0.0
 42
6.283185307179586
  0
SPLINE
  5
6C
330
1F
100
AcDbEntity
  8
0
  6
Continuous
 62
     7
370
    25
100
AcDbSpline
210
0.0
220
0.0
230
1.0
 70
     8
 71
     3
 72
    10
 73
     6
 74
     0
 42
0.00000001
 43
0.00000001
 40
0.0
 40
0.0
 40
0.0
 40
0.0
 40
0.5415285555668365
 40
0.829611504953591
 40
1.0
 40
1.0
 40
1.0
 40
1.0
 10
115.0235476475697
 20
181.5542792233664
 30
0.0
 10
115.2149159170302
 20
181.6531068364528
 30
0.0
 10
115.6328018709816
 20
181.7651567098783
 30
0.0
 10
115.5996170378796
 20
182.3781466035834
 30
0.0
 10
115.8705665734797
 20
182.3123879981673
 30
0.0
 10
115.9157212398204
 20
182.264074788472
 30
0.0
  0
LINE
  5
6D
330
1F
100
AcDbEntity
  8
0
  6
Continuous
 62
     7
370
    25
100
AcDbLine
 10
114.7376577672
 20
181.5542792234
 30
0.0
 11
115.0235476476
 21
181.5542792234
 31
0.0
  0
LINE
  5
6E
330
1F
100
AcDbEntity
  8
0
  6
Continuous
 62
     7
370
    25
100
AcDbLine
 10
114.7376577672
 20
181.8450982396
 30
0.0
 11
114.7376577672
 21
181.5542792234
 31
0.0
  0
SPLINE
  5
6F
330
1F
100
AcDbEntity
  8
0
  6
Continuous
 62
     7
370
    25
100
AcDbSpline
210
0.0
220
0.0
230
1.0
 70
     8
 71
     3
 72
     9
 73
     5
 74
     0
 42
0.00000001
 43
0.00000001
 40
0.0
 40
0.0
 40
0.0
 40
0.0
 40
0.4619523675534741
 40
1.0
 40
1.0
 40
1.0
 40
1.0
 10
115.3932328377288
 20
182.3133661471599
 30
0.0
 10
115.4490589206239
 20
182.1534090681867
 30
0.0
 10
115.1776566002912
 20
181.9346529135459
 30
0.0
 10
114.9188480345224
 20
181.7956878370268
 30
0.0
 10
114.73765776718
 20
181.8450982396249
 30
0.0
  0
LINE
  5
70
330
1F
100
AcDbEntity
  8
0
  6
Continuous
 62
     7
370
    25
100
AcDbLine
 10
115.3932328377
 20
183.2696185057
 30
0.0
 11
115.3932328377
 21
182.3133661472
 31
0.0
  0
LINE
  5
71
330
1F
100
AcDbEntity
  8
0
  6
Continuous
 62
     7
370
    25
100
AcDbLine
 10
115.6594061746
 20
183.2696185057
 30
0.0
 11
115.3932328377
 21
183.2696185057
 31
0.0
  0
SPLINE
  5
72
330
1F
100
AcDbEntity
  8
0
  6
Continuous
 62
     7
370
    25
100
AcDbSpline
210
0.0
220
0.0
230
1.0
 70
     8
 71
     3
 72
    16
 73
    12
 74
     0
 42
0.00000001
 43
0.00000001
 40
0.0
 40
0.0
 40
0.0
 40
0.0
 40
0.2058061937025209
 40
0.3301316257692981
 40
0.4450942736290587
 40
0.5773844439574393
 40
0.6261992409303011
 40
0.7092687205405532
 40
0.7957147847420553
 40
0.8562558462957315
 40
1.0
 40
1.0
 40
1.0
 40
1.0
 10
117.3500997776379
 20
183.4717130763252
 30
0.0
 10
117.1695088415242
 20
183.6576853779811
 30
0.0
 10
116.8134743605604
 20
183.5959918493442
 30
0.0
 10
116.3795497525531
 20
183.3567959763243
 30
0.0
 10
116.2654678439131
 20
182.9681147148142
 30
0.0
 10
116.5831599680081
 20
182.5353040318919
 30
0.0
 10
116.2389677294007
 20
182.5497506724314
 30
0.0
 10
116.0359203146927
 20
182.5273494247707
 30
0.0
 10
115.7656269830039
 20
182.601739573775
 30
0.0
 10
115.6671637425804
 20
182.9155177302938
 30
0.0
 10
115.75003890626
 20
183.1391546768583
 30
0.0
 10
115.6594061746434
 20
183.2696185057048
 30
0.0
  0
SPLINE
  5
73
330
1F
100
AcDbEntity
  8
0
  6
Continuous
 62
     7
370
    25
100
AcDbSpline
210
0.0
220
0.0
230
1.0
 70
     8
 71
     3
 72
    19
 73
    15
 74
     0
 42
0.00000001
 43
0.00000001
 40
0.0
 40
0.0
 40
0.0
 40
0.0
 40
0.1740869068301964
 40
0.2066784440194801
 40
0.2546613978558557
 40
0.3742502137935899
 40
0.4744038483255459
 40
0.5633521997309341
 40
0.639125130143817
 40
0.7048154734521326
 40
0.7551376999502251
 40
0.8395052923403983
 40
0.9189253538626757
 40
1.0
 40
1.0
 40
1.0
 40
1.0
 10
117.2613753319997
 20
182.264074788472
 30
0.0
 10
117.407577686761
 20
182.2395502247445
 30
0.0
 10
117.700704649574
 20
182.4010063236738
 30
0.0
 10
117.6009728442513
 20
182.6837966372418
 30
0.0
 10
117.364008149419
 20
182.6303706056862
 30
0.0
 10
117.1412222807849
 20
182.5406786615779
 30
0.0
 10
116.8061948573758
 20
182.5589469855344
 30
0.0
 10
116.6125510745027
 20
182.7725934417043
 30
0.0
 10
116.5761527172509
 20
182.9981220175507
 30
0.0
 10
116.611955493106
 20
183.2109463914436
 30
0.0
 10
116.8131792255076
 20
183.2857561703553
 30
0.0
 10
117.0205545535703
 20
183.3266625252463
 30
0.0
 10
117.2545053238287
 20
183.3244363037565
 30
0.0
 10
117.4423594338211
 20
183.3003470045427
 30
0.0
 10
117.3500997776379
 20
183.4717130763252
 30
0.0
  0
LINE
  5
74
330
1F
100
AcDbEntity
  8
0
  6
Continuous
 62
     7
370
    25
100
AcDbLine
 10
115.9157212398
 20
182.2640747885
 30
0.0
 11
117.261375332
 21
182.2640747885
 31
0.0
  0
LINE
  5
75
330
1F
100
AcDbEntity
  8
0
  6
Continuous
 62
     7
370
    25
100
AcDbLine
 10
110.2757319512
 20
182.9141720968
 30
0.0
 11
110.2757319512
 21
182.2640747885
 31
0.0
  0
LINE
  5
76
330
1F
100
AcDbEntity
  8
0
  6
Continuous
 62
     7
370
    25
100
AcDbLine
 10
110.5363498747
 20
182.9141720968
 30
0.0
 11
110.2757319512
 21
182.9141720968
 31
0.0
  0
SPLINE
  5
77
330
1F
100
AcDbEntity
  8
0
  6
Continuous
 62
     7
370
    25
100
AcDbSpline
210
0.0
220
0.0
230
1.0
 70
     8
 71
     3
 72
    12
 73
     8
 74
     0
 42
0.00000001
 43
0.00000001
 40
0.0
 40
0.0
 40
0.0
 40
0.0
 40
0.3080211037960592
 40
0.4800738123790488
 40
0.6032695464234524
 40
0.7306487817287378
 40
1.0
 40
1.0
 40
1.0
 40
1.0
 10
111.9386651792538
 20
182.6485473862375
 30
0.0
 10
112.0055890474738
 20
182.3295747633191
 30
0.0
 10
111.7159890450286
 20
181.9916323913317
 30
0.0
 10
111.1768799429368
 20
181.7879934835792
 30
0.0
 10
110.8234118302026
 20
181.9555603780257
 30
0.0
 10
110.4808074429175
 20
182.2855284281193
 30
0.0
 10
110.527947329697
 20
182.7045792760728
 30
0.0
 10
110.5363498746941
 20
182.9141720967881
 30
0.0
  0
LINE
  5
78
330
1F
100
AcDbEntity
  8
0
  6
Continuous
 62
     7
370
    25
100
AcDbLine
 10
111.7723885919
 20
183.0929435092
 30
0.0
 11
111.9386651793
 21
182.6485473862
 31
0.0
  0
ARC
  5
79
330
1F
100
AcDbEntity
  8
0
  6
Continuous
 62
     7
370
    25
100
AcDbCircle
 10
111.8899183189
 20
183.1369187846
 30
0.0
 40
0.1254872964840996
100
AcDbArc
 50
20.5139896269
 51
200.5139896269
  0
LINE
  5
7A
330
1F
100
AcDbEntity
  8
0
  6
Continuous
 62
     7
370
    25
100
AcDbLine
 10
112.1531477675
 20
182.7914923264
 30
0.0
 11
112.0074480459
 21
183.1808940601
 31
0.0
  0
ARC
  5
7B
330
1F
100
AcDbEntity
  8
0
  6
Continuous
 62
     7
370
    25
100
AcDbCircle
 10
112.4654966239
 20
182.7914923264
 30
0.0
 40
0.31234885646451
100
AcDbArc
 50
180.0
 51
0.0
  0
LINE
  5
7C
330
1F
100
AcDbEntity
  8
0
  6
Continuous
 62
     7
370
    25
100
AcDbLine
 10
112.7778454804
 20
183.1808940601
 30
0.0
 11
112.7778454804
 21
182.7914923264
 31
0.0
  0
ARC
  5
7D
330
1F
100
AcDbEntity
  8
0
  6
Continuous
 62
     7
370
    25
100
AcDbCircle
 10
112.8957232308
 20
183.1808940601
 30
0.0
 40
0.1178777503942285
100
AcDbArc
 50
0.0
 51
180.0
  0
LINE
  5
7E
330
1F
100
AcDbEntity
  8
0
  6
Continuous
 62
     7
370
    25
100
AcDbLine
 10
113.0136009812
 20
182.8259962775
 30
0.0
 11
113.0136009812
 21
183.1808940601
 31
0.0
  0
ARC
  5
7F
330
1F
100
AcDbEntity
  8
0
  6
Continuous
 62
     7
370
    25
100
AcDbCircle
 10
113.3346385635
 20
182.8259962775
 30
0.0
 40
0.3210375822917371
100
AcDbArc
 50
180.0
 51
0.0
  0
LINE
  5
80
330
1F
100
AcDbEntity
  8
0
  6
Continuous
 62
     7
370
    25
100
AcDbLine
 10
113.6556761458
 20
183.5357918426
 30
0.0
 11
113.6556761458
 21
182.8259962775
 31
0.0
  0
LINE
  5
81
330
1F
100
AcDbEntity
  8
0
  6
Continuous
 62
     7
370
    25
100
AcDbLine
 10
113.6556761458
 20
183.5357918426
 30
0.0
 11
113.9079354545
 21
183.5357918426
 31
0.0
  0
LINE
  5
82
330
1F
100
AcDbEntity
  8
0
  6
Continuous
 62
     7
370
    25
100
AcDbLine
 10
113.9079354545
 20
183.5357918426
 30
0.0
 11
113.9079354545
 21
182.7000292696
 31
0.0
  0
ARC
  5
83
330
1F
100
AcDbEntity
  8
0
  6
Continuous
 62
     7
370
    25
100
AcDbCircle
 10
113.4033153276
 20
182.7000292696
 30
0.0
 40
0.5046201269097531
100
AcDbArc
 50
208.9347647219
 51
0.0
  0
LINE
  5
84
330
1F
100
AcDbEntity
  8
0
  6
Continuous
 62
     7
370
    25
100
AcDbLine
 10
112.9616863609
 20
182.4558872448
 30
0.0
 11
112.8957232308
 21
182.4558872448
 31
0.0
  0
SPLINE
  5
85
330
1F
100
AcDbEntity
  8
0
  6
Continuous
 62
     7
370
    25
100
AcDbSpline
210
0.0
220
0.0
230
1.0
 70
     8
 71
     3
 72
     8
 73
     4
 74
     0
 42
0.00000001
 43
0.00000001
 40
0.0
 40
0.0
 40
0.0
 40
0.0
 40
1.0
 40
1.0
 40
1.0
 40
1.0
 10
112.8957232307946
 20
182.455887244816
 30
0.0
 10
112.8010764761556
 20
182.1817355664838
 30
0.0
 10
112.4690966047265
 20
182.2025675388347
 30
0.0
 10
112.2654390614898
 20
182.3133661471599
 30
0.0
  0
LINE
  5
86
330
1F
100
AcDbEntity
  8
0
  6
Continuous
 62
     7
370
    25
100
AcDbLine
 10
112.2654390615
 20
182.3133661472
 30
0.0
 11
112.1531477675
 21
182.3133661472
 31
0.0
  0
SPLINE
  5
87
330
1F
100
AcDbEntity
  8
0
  6
Continuous
 62
     7
370
    25
100
AcDbSpline
210
0.0
220
0.0
230
1.0
 70
     8
 71
     3
 72
    12
 73
     8
 74
     0
 42
0.00000001
 43
0.00000001
 40
0.0
 40
0.0
 40
0.0
 40
0.0
 40
0.2071992112323597
 40
0.3503316816099831
 40
0.5285266884137293
 40
0.7038393266951777
 40
1.0
 40
1.0
 40
1.0
 40
1.0
 10
112.1531477674713
 20
182.3133661471599
 30
0.0
 10
112.1624384812493
 20
182.1336086951336
 30
0.0
 10
112.006941725162
 20
181.8459820406574
 30
0.0
 10
111.6005251974251
 20
181.6351004825193
 30
0.0
 10
111.1756687850267
 20
181.5572535296339
 30
0.0
 10
110.6272125276078
 20
181.6984508046729
 30
0.0
 10
110.3163293886389
 20
181.9998328462905
 30
0.0
 10
110.2757319511674
 20
182.264074788472
 30
0.0
  0
CIRCLE
  5
88
330
1F
100
AcDbEntity
  8
0
  6
Continuous
 62
     7
370
    25
100
AcDbCircle
 10
105.3690197813
 20
181.8013345925
 30
0.0
 40
0.1563608593960026
  0
CIRCLE
  5
89
330
1F
100
AcDbEntity
  8
0
  6
Continuous
 62
     7
370
    25
100
AcDbCircle
 10
105.8926995235
 20
181.8013345925
 30
0.0
 40
0.1616629013199997
  0
SPLINE
  5
8A
330
1F
100
AcDbEntity
  8
0
  6
Continuous
 62
     7
370
    25
100
AcDbSpline
210
0.0
220
0.0
230
1.0
 70
     8
 71
     3
 72
    15
 73
    11
 74
     0
 42
0.00000001
 43
0.00000001
 40
0.0
 40
0.0
 40
0.0
 40
0.0
 40
0.2431894462185441
 40
0.3422554545681407
 40
0.4350733502961706
 40
0.5329171108607521
 40
0.6131931929555868
 40
0.692984216926773
 40
0.8220156920145896
 40
1.0
 40
1.0
 40
1.0
 40
1.0
 10
108.4952550135185
 20
182.7914923264323
 30
0.0
 10
108.5245225590915
 20
182.9543755639766
 30
0.0
 10
108.6804144645551
 20
183.090474472542
 30
0.0
 10
108.9669334978424
 20
183.1254006102454
 30
0.0
 10
109.081293180726
 20
182.9619569200877
 30
0.0
 10
109.0782286272333
 20
182.8044357658249
 30
0.0
 10
109.1101709497772
 20
182.6413894497057
 30
0.0
 10
108.9669099409093
 20
182.5122288764687
 30
0.0
 10
108.7328246903126
 20
182.4765313365025
 30
0.0
 10
108.5495864452987
 20
182.5488222320912
 30
0.0
 10
108.4952550135185
 20
182.6485473862375
 30
0.0
  0
LINE
  5
8B
330
1F
100
AcDbEntity
  8
0
  6
Continuous
 62
     7
370
    25
100
AcDbLine
 10
108.7004961313
 20
183.4035134773
 30
0.0
 11
108.9879683348
 21
183.4035134773
 31
0.0
  0
SPLINE
  5
8C
330
1F
100
AcDbEntity
  8
0
  6
Continuous
 62
     7
370
    25
100
AcDbSpline
210
0.0
220
0.0
230
1.0
 70
     8
 71
     3
 72
     8
 73
     4
 74
     0
 42
0.00000001
 43
0.00000001
 40
0.0
 40
0.0
 40
0.0
 40
0.0
 40
1.0
 40
1.0
 40
1.0
 40
1.0
 10
108.9879683347678
 20
183.4035134772715
 30
0.0
 10
109.1889970274984
 20
183.3473630822137
 30
0.0
 10
109.3434631400831
 20
183.1665983108109
 30
0.0
 10
109.3751660489747
 20
182.9640120818399
 30
0.0
  0
LINE
  5
8D
330
1F
100
AcDbEntity
  8
0
  6
Continuous
 62
     7
370
    25
100
AcDbLine
 10
109.375166049
 20
182.9640120818
 30
0.0
 11
109.375166049
 21
182.5992560275
 31
0.0
  0
SPLINE
  5
8E
330
1F
100
AcDbEntity
  8
0
  6
Continuous
 62
     7
370
    25
100
AcDbSpline
210
0.0
220
0.0
230
1.0
 70
     8
 71
     3
 72
    20
 73
    16
 74
     0
 42
0.00000001
 43
0.00000001
 40
0.0
 40
0.0
 40
0.0
 40
0.0
 40
0.195594457801902
 40
0.3009429319226241
 40
0.3820784986813795
 40
0.4625709916365153
 40
0.5137185445650048
 40
0.5474942728756678
 40
0.5851063759792832
 40
0.6488552588770392
 40
0.7269738998257897
 40
0.8254817889066877
 40
0.8917507324702009
 40
0.9419002032750217
 40
1.0
 40
1.0
 40
1.0
 40
1.0
 10
109.3751660489747
 20
182.5992560275496
 30
0.0
 10
109.3500170850347
 20
182.4453276118507
 30
0.0
 10
109.1591466022355
 20
182.251571137943
 30
0.0
 10
108.8668810978596
 20
182.2177892830225
 30
0.0
 10
108.6441450721182
 20
182.1808230071664
 30
0.0
 10
108.5230080216422
 20
182.3182004806284
 30
0.0
 10
108.3917080790122
 20
182.3450758807514
 30
0.0
 10
108.3274197125829
 20
182.4236929533026
 30
0.0
 10
108.2050962368735
 20
182.4200776359131
 30
0.0
 10
108.1274597423535
 20
182.2837783349432
 30
0.0
 10
107.9272511330307
 20
182.257942813321
 30
0.0
 10
107.7388172657195
 20
182.2595391208665
 30
0.0
 10
107.5790980652386
 20
182.2767316746206
 30
0.0
 10
107.4196227698472
 20
182.2261707071235
 30
0.0
 10
107.3973929818245
 20
182.360682186566
 30
0.0
 10
107.3302038141571
 20
182.3133661471599
 30
0.0
  0
SPLINE
  5
8F
330
1F
100
AcDbEntity
  8
0
  6
Continuous
 62
     7
370
    25
100
AcDbSpline
210
0.0
220
0.0
230
1.0
 70
     8
 71
     3
 72
    11
 73
     7
 74
     0
 42
0.00000001
 43
0.00000001
 40
0.0
 40
0.0
 40
0.0
 40
0.0
 40
0.2875460148796825
 40
0.4950761548239188
 40
0.674605890762447
 40
1.0
 40
1.0
 40
1.0
 40
1.0
 10
107.3302038141571
 20
182.3133661471599
 30
0.0
 10
107.356108734393
 20
182.1705081512163
 30
0.0
 10
107.2448567160135
 20
181.9806861041278
 30
0.0
 10
107.1213208330971
 20
181.682850916714
 30
0.0
 10
106.8049265820205
 20
181.5552679703918
 30
0.0
 10
106.5771002743404
 20
181.5361561509139
 30
0.0
 10
106.4334375882329
 20
181.5904034988009
 30
0.0
  0
LINE
  5
90
330
1F
100
AcDbEntity
  8
0
  6
Continuous
 62
     7
370
    25
100
AcDbLine
 10
106.4334375882
 20
181.5904034988
 30
0.0
 11
106.4334375882
 21
181.8450982396
 31
0.0
  0
SPLINE
  5
91
330
1F
100
AcDbEntity
  8
0
  6
Continuous
 62
     7
370
    25
100
AcDbSpline
210
0.0
220
0.0
230
1.0
 70
     8
 71
     3
 72
    11
 73
     7
 74
     0
 42
0.00000001
 43
0.00000001
 40
0.0
 40
0.0
 40
0.0
 40
0.0
 40
0.3113940541038997
 40
0.4723548661293688
 40
0.6658668618888656
 40
1.0
 40
1.0
 40
1.0
 40
1.0
 10
106.4334375882329
 20
181.8450982396249
 30
0.0
 10
106.6168670981271
 20
181.7882344955721
 30
0.0
 10
106.9013158196444
 20
181.9215772490028
 30
0.0
 10
107.0811434987968
 20
182.2774865584448
 30
0.0
 10
107.0907303763892
 20
182.6831130408692
 30
0.0
 10
107.0860498088945
 20
182.9863154268341
 30
0.0
 10
107.0871550239533
 20
183.1808940600666
 30
0.0
  0
LINE
  5
92
330
1F
100
AcDbEntity
  8
0
  6
Continuous
 62
     7
370
    25
100
AcDbLine
 10
107.087155024
 20
183.1808940601
 30
0.0
 11
107.3762992744
 21
183.1808940601
 31
0.0
  0
LINE
  5
93
330
1F
100
AcDbEntity
  8
0
  6
Continuous
 62
     7
370
    25
100
AcDbLine
 10
107.3762992744
 20
183.1808940601
 30
0.0
 11
107.3762992744
 21
182.6485473862
 31
0.0
  0
SPLINE
  5
94
330
1F
100
AcDbEntity
  8
0
  6
Continuous
 62
     7
370
    25
100
AcDbSpline
210
0.0
220
0.0
230
1.0
 70
     8
 71
     3
 72
    13
 73
     9
 74
     0
 42
0.00000001
 43
0.00000001
 40
0.0
 40
0.0
 40
0.0
 40
0.0
 40
0.1374917639401189
 40
0.3199696272194691
 40
0.4563406554331771
 40
0.6238575301090589
 40
0.8050086714777275
 40
1.0
 40
1.0
 40
1.0
 40
1.0
 10
107.3762992743681
 20
182.6485473862375
 30
0.0
 10
107.3960734047263
 20
182.5495313307805
 30
0.0
 10
107.5839462441896
 20
182.4794753802557
 30
0.0
 10
107.8762122018059
 20
182.4529226608894
 30
0.0
 10
108.122454292294
 20
182.6508839414945
 30
0.0
 10
108.2253450649265
 20
182.9302622471436
 30
0.0
 10
108.4277974580657
 20
183.1914712663774
 30
0.0
 10
108.5914535465742
 20
183.3552612360922
 30
0.0
 10
108.7004961313402
 20
183.4035134772715
 30
0.0
  0
LINE
  5
95
330
1F
100
AcDbEntity
  8
0
  6
Continuous
 62
     7
370
    25
100
AcDbLine
 10
108.4952550135
 20
182.7914923264
 30
0.0
 11
108.4952550135
 21
182.6485473862
 31
0.0
  0
CIRCLE
  5
96
330
1F
100
AcDbEntity
  8
0
  6
Continuous
 62
     7
370
    25
100
AcDbCircle
 10
104.3360626272
 20
182.8596292034
 30
0.0
 40
0.3409814001678342
  0
LINE
  5
97
330
1F
100
AcDbEntity
  8
0
  6
Continuous
 62
     7
370
    25
100
AcDbLine
 10
106.2334228932
 20
183.1808940601
 30
0.0
 11
106.2334228932
 21
182.5992560275
 31
0.0
  0
SPLINE
  5
98
330
1F
100
AcDbEntity
  8
0
  6
Continuous
 62
     7
370
    25
100
AcDbSpline
210
0.0
220
0.0
230
1.0
 70
     8
 71
     3
 72
    59
 73
    55
 74
     0
 42
0.00000001
 43
0.00000001
 40
0.0
 40
0.0
 40
0.0
 40
0.0
 40
0.0489765895748836
 40
0.0793557141536669
 40
0.1069219568270072
 40
0.1198612135920445
 40
0.1346747011322588
 40
0.1479245132152612
 40
0.153550277026147
 40
0.166012300153357
 40
0.1824367231401447
 40
0.2071900839080421
 40
0.2323766014732112
 40
0.2464601009503689
 40
0.2599241513195839
 40
0.2733165630743736
 40
0.2840055143150566
 40
0.3019659404030601
 40
0.3175505049898777
 40
0.3417414709204005
 40
0.375519081558328
 40
0.408135021317428
 40
0.4267341061799335
 40
0.4350404469045728
 40
0.461755043989552
 40
0.4844870240790051
 40
0.5150834365038015
 40
0.5289045658648944
 40
0.54837439613111
 40
0.5676012726738598
 40
0.5804431869605721
 40
0.5922759537633934
 40
0.6074655160527851
 40
0.6277631927240652
 40
0.6395987508896361
 40
0.6590966720122556
 40
0.6819055748625855
 40
0.6987721144801394
 40
0.7178997114371511
 40
0.7353473579331475
 40
0.7572079205719561
 40
0.7767130885044631
 40
0.7901165048652747
 40
0.8150506102056665
 40
0.8248219501973043
 40
0.8360734778190758
 40
0.8553305405303996
 40
0.8840219359659172
 40
0.9037121093040174
 40
0.9194784800159297
 40
0.9492501935746844
 40
0.9655652036641307
 40
0.9705781597286891
 40
1.0
 40
1.0
 40
1.0
 40
1.0
 10
106.2334228931616
 20
182.5992560275496
 30
0.0
 10
106.1922312872102
 20
182.4222485994587
 30
0.0
 10
105.9342475967288
 20
182.2197300264643
 30
0.0
 10
105.5512008445888
 20
182.2716044201398
 30
0.0
 10
105.3003055129488
 20
182.2664096227743
 30
0.0
 10
105.1078298688892
 20
182.2586316462169
 30
0.0
 10
104.9527945930194
 20
182.288070932016
 30
0.0
 10
104.8969046004774
 20
182.4164033862194
 30
0.0
 10
104.7703260498754
 20
182.4182063942832
 30
0.0
 10
104.7208215419219
 20
182.2769609977038
 30
0.0
 10
104.5097744686091
 20
182.2588567100605
 30
0.0
 10
104.2849044209199
 20
182.2608403372877
 30
0.0
 10
104.0544716136152
 20
182.2796994507526
 30
0.0
 10
103.8873265595668
 20
182.3944611361992
 30
0.0
 10
103.8872323928525
 20
182.5673801611491
 30
0.0
 10
103.7382885979322
 20
182.5999910325118
 30
0.0
 10
103.5813195286066
 20
182.6191036989028
 30
0.0
 10
103.4999291744038
 20
182.4557332213442
 30
0.0
 10
103.3652172786019
 20
182.296104257054
 30
0.0
 10
103.4591530337036
 20
182.0140478528846
 30
0.0
 10
103.3803088523938
 20
181.7277389354821
 30
0.0
 10
103.5630005813583
 20
181.338529291759
 30
0.0
 10
103.2439847774731
 20
181.294445710266
 30
0.0
 10
103.1717249720529
 20
181.4854802858389
 30
0.0
 10
103.1564698114566
 20
181.6843141634116
 30
0.0
 10
103.1437223470555
 20
181.9691121202705
 30
0.0
 10
103.1332533239016
 20
182.2023331134024
 30
0.0
 10
103.112631101635
 20
182.4347683350536
 30
0.0
 10
103.2116085891729
 20
182.5922861811978
 30
0.0
 10
103.3009800554399
 20
182.7797028093238
 30
0.0
 10
103.4902475075798
 20
182.7575713402222
 30
0.0
 10
103.5328567103157
 20
182.9428318786219
 30
0.0
 10
103.7767504795178
 20
182.8234024560989
 30
0.0
 10
103.736739511618
 20
183.0954157192561
 30
0.0
 10
103.9080310750003
 20
183.1863661636328
 30
0.0
 10
103.9639352897176
 20
183.3789341268855
 30
0.0
 10
104.1121905271409
 20
183.5486317299954
 30
0.0
 10
104.3205726625568
 20
183.5832644792674
 30
0.0
 10
104.5169672097739
 20
183.6093871988975
 30
0.0
 10
104.6918186375378
 20
183.4681470816935
 30
0.0
 10
104.7671910323293
 20
183.2720744750953
 30
0.0
 10
104.8773854515271
 20
183.1150682787478
 30
0.0
 10
104.9752784422621
 20
182.9260711248403
 30
0.0
 10
104.9522420431368
 20
182.7716012073692
 30
0.0
 10
104.9623866977108
 20
182.5653262483493
 30
0.0
 10
105.1424716926535
 20
182.6265310732343
 30
0.0
 10
105.3204913423885
 20
182.5009056485044
 30
0.0
 10
105.5696895837985
 20
182.5682270387367
 30
0.0
 10
105.8006664046008
 20
182.5108616726868
 30
0.0
 10
106.0075703713429
 20
182.6773197596784
 30
0.0
 10
105.9559571780258
 20
182.9141234066839
 30
0.0
 10
105.9199845617129
 20
183.1054266084533
 30
0.0
 10
106.0274334490157
 20
183.2514231834937
 30
0.0
 10
106.1614135455301
 20
183.3358635392414
 30
0.0
 10
106.2334228931616
 20
183.1808940600666
 30
0.0
  0
SPLINE
  5
99
330
1F
100
AcDbEntity
  8
0
  6
Continuous
 62
     7
370
    25
100
AcDbSpline
210
0.0
220
0.0
230
1.0
 70
    11
 71
     3
 72
    60
 73
    56
 74
     0
 42
0.00000001
 43
0.00000001
 40
0.0
 40
0.0
 40
0.0
 40
0.0
 40
0.0193349164883987
 40
0.0390566219892963
 40
0.0678048638570742
 40
0.1098835971505423
 40
0.1367264701313192
 40
0.1569098982105989
 40
0.1728570901000736
 40
0.1955833007714362
 40
0.2091657379004757
 40
0.220839379375218
 40
0.2309785972355998
 40
0.2423912337763906
 40
0.2535643863339117
 40
0.2693716987220607
 40
0.285553962536653
 40
0.3050826682869178
 40
0.3266315402939978
 40
0.3439777349833015
 40
0.3630628751234039
 40
0.3891784088830504
 40
0.4124933078813311
 40
0.435688250502048
 40
0.4525051395757475
 40
0.4678757370661703
 40
0.4875936594909808
 40
0.5191503097253203
 40
0.5514797090943067
 40
0.5772873259807861
 40
0.5924090913758253
 40
0.6015361807984472
 40
0.6266397205385704
 40
0.6479144069184971
 40
0.6686878115456975
 40
0.693187539962289
 40
0.7174763622758382
 40
0.7344507372109199
 40
0.7546999667699469
 40
0.7616181869099918
 40
0.7735344290238989
 40
0.7838147875950352
 40
0.8038291549660932
 40
0.8240598950697448
 40
0.8441833587420926
 40
0.860158780484845
 40
0.8750476453012385
 40
0.879470223819035
 40
0.8899540015912552
 40
0.906787599596171
 40
0.9272232963055079
 40
0.950188253174812
 40
0.9710219152469901
 40
0.9937446288149115
 40
1.0
 40
1.0
 40
1.0
 40
1.0
 10
109.9086778749704
 20
188.9604135042033
 30
0.0
 10
109.953697094325
 20
189.0695832909514
 30
0.0
 10
110.3809343467699
 20
188.9338905393408
 30
0.0
 10
110.799441851846
 20
188.8426715305246
 30
0.0
 10
111.330728084027
 20
188.370277998701
 30
0.0
 10
111.7295089968409
 20
187.7895971991644
 30
0.0
 10
111.9732460493439
 20
187.1832199251695
 30
0.0
 10
112.145031426918
 20
186.7603380709072
 30
0.0
 10
112.2876313021857
 20
186.3503794054962
 30
0.0
 10
112.5513907202871
 20
186.0691371117002
 30
0.0
 10
112.8216694769501
 20
185.8320268885337
 30
0.0
 10
112.8802046322153
 20
185.5703930673265
 30
0.0
 10
112.8661399907013
 20
185.3216047378376
 30
0.0
 10
112.70240972926
 20
185.125943457755
 30
0.0
 10
112.4354932531558
 20
185.0189193803403
 30
0.0
 10
112.1147621718313
 20
185.040011735128
 30
0.0
 10
111.7490368880743
 20
185.1124665212212
 30
0.0
 10
111.3393940857898
 20
185.2164045323399
 30
0.0
 10
110.9877163848158
 20
185.4659244824159
 30
0.0
 10
110.6613216874752
 20
185.7341698355746
 30
0.0
 10
110.3826641659614
 20
186.1018606402572
 30
0.0
 10
110.1625281074446
 20
186.5423341540943
 30
0.0
 10
109.9839697636826
 20
187.074936485462
 30
0.0
 10
109.879981011678
 20
187.4143315463928
 30
0.0
 10
109.7336065435436
 20
188.0903820882751
 30
0.0
 10
109.9636125760759
 20
187.5089656174923
 30
0.0
 10
110.1358504348929
 20
187.152916898159
 30
0.0
 10
110.4854225090738
 20
186.6192879838048
 30
0.0
 10
110.9565636603985
 20
186.1031733785803
 30
0.0
 10
111.2725705545342
 20
185.8676619188288
 30
0.0
 10
111.8836661943371
 20
185.6187280976769
 30
0.0
 10
111.4407539500563
 20
185.9042486505957
 30
0.0
 10
111.1612286882858
 20
186.0629255488232
 30
0.0
 10
110.8083071356178
 20
186.4398647188119
 30
0.0
 10
110.4813203624343
 20
186.7908254365598
 30
0.0
 10
110.2433389084943
 20
187.2476581853591
 30
0.0
 10
110.0486247134887
 20
187.6752505503051
 30
0.0
 10
109.8858966073619
 20
188.1172944073834
 30
0.0
 10
109.8496312683371
 20
188.3704371457358
 30
0.0
 10
109.777795873425
 20
188.7751486304089
 30
0.0
 10
109.9714496353455
 20
188.4310088352427
 30
0.0
 10
110.1541830650917
 20
188.2564220634962
 30
0.0
 10
110.3130936002131
 20
187.8861755688315
 30
0.0
 10
110.5403277051729
 20
187.53237039836
 30
0.0
 10
110.7280233960177
 20
187.1244651298414
 30
0.0
 10
110.8953597355418
 20
186.9113186443136
 30
0.0
 10
111.0737692798483
 20
186.4158470133444
 30
0.0
 10
111.0646178493893
 20
186.6944239966847
 30
0.0
 10
111.0220483652745
 20
186.9008481522753
 30
0.0
 10
110.7953151638
 20
187.1921064654158
 30
0.0
 10
110.7092615740213
 20
187.6304340660577
 30
0.0
 10
110.4034369600976
 20
187.9982911660542
 30
0.0
 10
110.2563609856012
 20
188.4767197303548
 30
0.0
 10
109.9073660879591
 20
188.6759700060737
 30
0.0
 10
109.8941129334721
 20
188.9250941099501
 30
0.0
 10
109.9086778749704
 20
188.9604135042033
 30
0.0
  0
ARC
  5
9A
330
1F
100
AcDbEntity
  8
0
  6
Continuous
 62
     7
370
    25
100
AcDbCircle
 10
112.600610387
 20
187.3750879639
 30
0.0
 40
0.0440346321830975
100
AcDbArc
 50
229.8083686235
 51
58.2653676756
  0
SPLINE
  5
9B
330
1F
100
AcDbEntity
  8
0
  6
Continuous
 62
     7
370
    25
100
AcDbSpline
210
0.0
220
0.0
230
1.0
 70
     8
 71
     3
 72
     8
 73
     4
 74
     0
 42
0.00000001
 43
0.00000001
 40
0.0
 40
0.0
 40
0.0
 40
0.0
 40
1.0
 40
1.0
 40
1.0
 40
1.0
 10
111.7527590310212
 20
188.0669778250506
 30
0.0
 10
112.0023957066245
 20
187.7985319825782
 30
0.0
 10
112.2755402989396
 20
187.5566894861159
 30
0.0
 10
112.5721928079665
 20
187.3414503356636
 30
0.0
  0
SPLINE
  5
9C
330
1F
100
AcDbEntity
  8
0
  6
Continuous
 62
     7
370
    25
100
AcDbSpline
210
0.0
220
0.0
230
1.0
 70
     8
 71
     3
 72
    14
 73
    10
 74
     0
 42
0.00000001
 43
0.00000001
 40
0.0
 40
0.0
 40
0.0
 40
0.0
 40
0.2269212536686798
 40
0.3843389881940178
 40
0.5161479711893012
 40
0.5862566165197526
 40
0.6549616413922857
 40
0.7591521818183709
 40
1.0
 40
1.0
 40
1.0
 40
1.0
 10
109.9319133949072
 20
189.1778935273461
 30
0.0
 10
110.1990088752674
 20
189.4579019587028
 30
0.0
 10
110.8219560862719
 20
189.6773153958767
 30
0.0
 10
111.664862239786
 20
189.5919658138347
 30
0.0
 10
112.2582579441426
 20
189.6609747705132
 30
0.0
 10
112.6879046126347
 20
189.5416239602557
 30
0.0
 10
113.072599130059
 20
189.4434039803379
 30
0.0
 10
113.6848240238051
 20
189.1366130184866
 30
0.0
 10
114.0833014951133
 20
188.7233663399921
 30
0.0
 10
114.3724941477145
 20
188.4608291227584
 30
0.0
  0
LINE
  5
9D
330
1F
100
AcDbEntity
  8
0
  6
Continuous
 62
     7
370
    25
100
AcDbLine
 10
109.9319133949
 20
189.1778935273
 30
0.0
 11
109.9319133949
 21
189.126094479
 31
0.0
  0
SPLINE
  5
9E
330
1F
100
AcDbEntity
  8
0
  6
Continuous
 62
     7
370
    25
100
AcDbSpline
210
0.0
220
0.0
230
1.0
 70
     8
 71
     3
 72
    11
 73
     7
 74
     0
 42
0.00000001
 43
0.00000001
 40
0.0
 40
0.0
 40
0.0
 40
0.0
 40
0.3052123414692878
 40
0.5202179473061004
 40
0.69842282557681
 40
1.0
 40
1.0
 40
1.0
 40
1.0
 10
110.2757319511674
 20
189.0843327994118
 30
0.0
 10
110.5802176899331
 20
189.0633160195295
 30
0.0
 10
111.0363578080079
 20
188.8151798533533
 30
0.0
 10
111.5664395619104
 20
188.3894532083179
 30
0.0
 10
112.0899139621452
 20
187.9575278113026
 30
0.0
 10
112.4107032464915
 20
187.6151688908167
 30
0.0
 10
112.6237719794153
 20
187.4125391250018
 30
0.0
  0
LINE
  5
9F
330
1F
100
AcDbEntity
  8
0
  6
Continuous
 62
     7
370
    25
100
AcDbLine
 10
112.3546630147
 20
189.7872576085
 30
0.0
 11
110.741281901
 21
189.7872576085
 31
0.0
  0
SPLINE
  5
A0
330
1F
100
AcDbEntity
  8
0
  6
Continuous
 62
     7
370
    25
100
AcDbSpline
210
0.0
220
0.0
230
1.0
 70
     8
 71
     3
 72
    15
 73
    11
 74
     0
 42
0.00000001
 43
0.00000001
 40
0.0
 40
0.0
 40
0.0
 40
0.0
 40
0.2299791356458823
 40
0.3536332882225628
 40
0.4853900093435375
 40
0.6095504401330509
 40
0.7350312048201223
 40
0.8689985506133291
 40
0.9451168735267429
 40
1.0
 40
1.0
 40
1.0
 40
1.0
 10
110.7412819009746
 20
189.7872576084684
 30
0.0
 10
111.0674868556294
 20
190.0229269229966
 30
0.0
 10
111.6425029212116
 20
190.2390547867778
 30
0.0
 10
112.4299227423111
 20
190.5272653962419
 30
0.0
 10
113.0901556404013
 20
190.6310822762144
 30
0.0
 10
113.7398504572475
 20
190.5319376494048
 30
0.0
 10
114.4167893219916
 20
190.4044047921477
 30
0.0
 10
114.846833602769
 20
190.0760592213468
 30
0.0
 10
115.3669681462094
 20
189.8459646032418
 30
0.0
 10
115.2114886764805
 20
189.5350319273675
 30
0.0
 10
115.0774219417505
 20
189.6897008495492
 30
0.0
  0
SPLINE
  5
A1
330
1F
100
AcDbEntity
  8
0
  6
Continuous
 62
     7
370
    25
100
AcDbSpline
210
0.0
220
0.0
230
1.0
 70
     8
 71
     3
 72
    11
 73
     7
 74
     0
 42
0.00000001
 43
0.00000001
 40
0.0
 40
0.0
 40
0.0
 40
0.0
 40
0.3670026393424155
 40
0.6407869969750769
 40
0.7801365686805737
 40
1.0
 40
1.0
 40
1.0
 40
1.0
 10
109.105467614234
 20
191.0054062927997
 30
0.0
 10
108.788106425759
 20
190.9065996625164
 30
0.0
 10
108.214833340212
 20
190.8904882502018
 30
0.0
 10
107.515697780627
 20
190.9877734397118
 30
0.0
 10
106.9701278427394
 20
191.0101105876329
 30
0.0
 10
106.589333556373
 20
191.0104060247773
 30
0.0
 10
106.5621997659603
 20
191.2670127326842
 30
0.0
  0
SPLINE
  5
A2
330
1F
100
AcDbEntity
  8
0
  6
Continuous
 62
     7
370
    25
100
AcDbSpline
210
0.0
220
0.0
230
1.0
 70
     8
 71
     3
 72
    12
 73
     8
 74
     0
 42
0.00000001
 43
0.00000001
 40
0.0
 40
0.0
 40
0.0
 40
0.0
 40
0.3055367613497041
 40
0.4849771183873494
 40
0.729770256913743
 40
0.897617489052298
 40
1.0
 40
1.0
 40
1.0
 40
1.0
 10
106.5621997659603
 20
191.2670127326842
 30
0.0
 10
106.8557464537303
 20
191.0997250909839
 30
0.0
 10
107.3559798018103
 20
191.0798505436331
 30
0.0
 10
108.1704681288548
 20
191.040625617928
 30
0.0
 10
108.6169616000609
 20
191.0013044127901
 30
0.0
 10
109.6055722403499
 20
191.2943117903027
 30
0.0
 10
109.2013543746105
 20
190.8936692124295
 30
0.0
 10
109.105467614234
 20
191.0054062927997
 30
0.0
  0
SPLINE
  5
A3
330
1F
100
AcDbEntity
  8
0
  6
Continuous
 62
     7
370
    25
100
AcDbSpline
210
0.0
220
0.0
230
1.0
 70
     8
 71
     3
 72
    20
 73
    16
 74
     0
 42
0.00000001
 43
0.00000001
 40
0.0
 40
0.0
 40
0.0
 40
0.0
 40
0.0534384178583707
 40
0.1054292541156483
 40
0.1714840377630777
 40
0.259385805943275
 40
0.3656777925864702
 40
0.5210473257061904
 40
0.5486470700727503
 40
0.5718442739817858
 40
0.5995110294503716
 40
0.6411859485418011
 40
0.7272537940087094
 40
0.8147339455128603
 40
1.0
 40
1.0
 40
1.0
 40
1.0
 10
106.7989405054116
 20
189.6897008495492
 30
0.0
 10
106.5943886276133
 20
190.012083300904
 30
0.0
 10
106.9137582240689
 20
189.7640684148539
 30
0.0
 10
107.2221286437329
 20
189.5290363296832
 30
0.0
 10
107.6610495942932
 20
189.1927792865866
 30
0.0
 10
108.1260995003766
 20
188.723256148983
 30
0.0
 10
108.5470813305894
 20
187.8297880871068
 30
0.0
 10
108.4944011575864
 20
187.2906957553075
 30
0.0
 10
108.4945506214353
 20
186.4860005595992
 30
0.0
 10
108.3082616623131
 20
186.7239382962611
 30
0.0
 10
108.1277261757087
 20
186.8326534957525
 30
0.0
 10
107.8450487920413
 20
187.1425115163846
 30
0.0
 10
107.4804457374454
 20
187.5517339330474
 30
0.0
 10
107.0364719834484
 20
188.378686324556
 30
0.0
 10
106.8740502682814
 20
189.0706374792407
 30
0.0
 10
106.7989405054116
 20
189.5423091265373
 30
0.0
  0
LINE
  5
A4
330
1F
100
AcDbEntity
  8
0
  6
Continuous
 62
     7
370
    25
100
AcDbLine
 10
106.7989405054
 20
189.6897008495
 30
0.0
 11
106.7989405054
 21
189.5423091265
 31
0.0
  0
ARC
  5
A5
330
1F
100
AcDbEntity
  8
0
  6
Continuous
 62
     7
370
    25
100
AcDbCircle
 10
105.2970340726
 20
187.5971114298
 30
0.0
 40
0.0565252436124224
100
AcDbArc
 50
270.3290605968
 51
146.9383489457
  0
SPLINE
  5
A6
330
1F
100
AcDbEntity
  8
0
  6
Continuous
 62
     7
370
    25
100
AcDbSpline
210
0.0
220
0.0
230
1.0
 70
     8
 71
     3
 72
    13
 73
     9
 74
     0
 42
0.00000001
 43
0.00000001
 40
0.0
 40
0.0
 40
0.0
 40
0.0
 40
0.2553419824951395
 40
0.3859984802680377
 40
0.5353680564677857
 40
0.6590812578234156
 40
0.8474387220910408
 40
1.0
 40
1.0
 40
1.0
 40
1.0
 10
105.2496611678387
 20
187.6279482756824
 30
0.0
 10
105.060326026827
 20
187.504899280152
 30
0.0
 10
104.8294763899716
 20
187.2636514577606
 30
0.0
 10
104.5188275127424
 20
186.9080279258732
 30
0.0
 10
104.3934122028846
 20
186.5792561987656
 30
0.0
 10
104.250886779314
 20
186.1875624297327
 30
0.0
 10
104.2298971924866
 20
185.8526978414119
 30
0.0
 10
104.1204854374774
 20
185.4002454250246
 30
0.0
 10
104.0902077370898
 20
185.7364662186346
 30
0.0
  0
SPLINE
  5
A7
330
1F
100
AcDbEntity
  8
0
  6
Continuous
 62
     7
370
    25
100
AcDbSpline
210
0.0
220
0.0
230
1.0
 70
     8
 71
     3
 72
     8
 73
     4
 74
     0
 42
0.00000001
 43
0.00000001
 40
0.0
 40
0.0
 40
0.0
 40
0.0
 40
1.0
 40
1.0
 40
1.0
 40
1.0
 10
104.0902077370898
 20
185.7364662186346
 30
0.0
 10
104.0808529212079
 20
186.0246174632009
 30
0.0
 10
104.1453790152913
 20
186.2976428356928
 30
0.0
 10
104.2837860193399
 20
186.5555423361103
 30
0.0
  0
ARC
  5
A8
330
1F
100
AcDbEntity
  8
0
  6
Continuous
 62
     7
370
    25
100
AcDbCircle
 10
104.1982290926
 20
186.5545545504
 30
0.0
 40
0.085562628735453
100
AcDbArc
 50
0.6614711164
 51
179.3385288836
  0
SPLINE
  5
A9
330
1F
100
AcDbEntity
  8
0
  6
Continuous
 62
     7
370
    25
100
AcDbSpline
210
0.0
220
0.0
230
1.0
 70
     8
 71
     3
 72
    20
 73
    16
 74
     0
 42
0.00000001
 43
0.00000001
 40
0.0
 40
0.0
 40
0.0
 40
0.0
 40
0.2000664844737086
 40
0.2757995412900975
 40
0.3310050397354839
 40
0.385930532383243
 40
0.4260993265730735
 40
0.4982756000386026
 40
0.5474917514669042
 40
0.6105105206670433
 40
0.6535248454728408
 40
0.7363994138511596
 40
0.7847534545825723
 40
0.8487703624037292
 40
1.0
 40
1.0
 40
1.0
 40
1.0
 10
104.1126721658321
 20
186.5555423361103
 30
0.0
 10
103.9471045617187
 20
186.2957428565942
 30
0.0
 10
103.9810084271787
 20
185.9133529470173
 30
0.0
 10
103.9702889020156
 20
185.4441556794078
 30
0.0
 10
103.9817851768602
 20
185.1978943678773
 30
0.0
 10
104.2064165093262
 20
184.9728114102826
 30
0.0
 10
104.3040938873442
 20
185.2299845335598
 30
0.0
 10
104.3802459851661
 20
185.6130616020472
 30
0.0
 10
104.4436121150416
 20
185.2340469435641
 30
0.0
 10
104.2387226505805
 20
184.98425366789
 30
0.0
 10
104.6135266308198
 20
185.005727413221
 30
0.0
 10
104.7442960752572
 20
185.2079991392347
 30
0.0
 10
105.0112969766544
 20
185.3049899775743
 30
0.0
 10
105.2638961709838
 20
185.5792217823563
 30
0.0
 10
105.4736027906862
 20
185.7989398290644
 30
0.0
 10
105.4981992103584
 20
186.0261897461326
 30
0.0
  0
LINE
  5
AA
330
1F
100
AcDbEntity
  8
0
  6
Continuous
 62
     7
370
    25
100
AcDbLine
 10
105.5308309912
 20
186.1779088715
 30
0.0
 11
105.4981992104
 21
186.0261897461
 31
0.0
  0
ARC
  5
AB
330
1F
100
AcDbEntity
  8
0
  6
Continuous
 62
     7
370
    25
100
AcDbCircle
 10
105.5001191544
 20
187.5042674914
 30
0.0
 40
0.0558927644393714
100
AcDbArc
 50
303.3311996212
 51
139.4727895883
  0
SPLINE
  5
AC
330
1F
100
AcDbEntity
  8
0
  6
Continuous
 62
     7
370
    25
100
AcDbSpline
210
0.0
220
0.0
230
1.0
 70
     8
 71
     3
 72
    10
 73
     6
 74
     0
 42
0.00000001
 43
0.00000001
 40
0.0
 40
0.0
 40
0.0
 40
0.0
 40
0.4179890327184016
 40
0.6590989302868525
 40
1.0
 40
1.0
 40
1.0
 40
1.0
 10
104.7579147369458
 20
185.8046972789584
 30
0.0
 10
104.7267885926859
 20
186.0767856357218
 30
0.0
 10
104.8365662313164
 20
186.4900126892786
 30
0.0
 10
105.0783483012628
 20
187.0835630057561
 30
0.0
 10
105.292677525273
 20
187.39514715321
 30
0.0
 10
105.4576352066832
 20
187.5405871184085
 30
0.0
  0
LINE
  5
AD
330
1F
100
AcDbEntity
  8
0
  6
Continuous
 62
     7
370
    25
100
AcDbLine
 10
105.947237664
 20
190.8758632461
 30
0.0
 11
106.078405894
 21
190.988314644
 31
0.0
  0
LINE
  5
AE
330
1F
100
AcDbEntity
  8
0
  6
Continuous
 62
     7
370
    25
100
AcDbLine
 10
105.947237664
 20
189.8552314406
 30
0.0
 11
105.947237664
 21
190.8758632461
 31
0.0
  0
SPLINE
  5
AF
330
1F
100
AcDbEntity
  8
0
  6
Continuous
 62
     7
370
    25
100
AcDbSpline
210
0.0
220
0.0
230
1.0
 70
     8
 71
     3
 72
     9
 73
     5
 74
     0
 42
0.00000001
 43
0.00000001
 40
0.0
 40
0.0
 40
0.0
 40
0.0
 40
0.3063145269719414
 40
1.0
 40
1.0
 40
1.0
 40
1.0
 10
105.6014305120451
 20
187.8620534327819
 30
0.0
 10
105.7745040919953
 20
188.0005723715958
 30
0.0
 10
106.0087199922511
 20
188.6786193799423
 30
0.0
 10
105.9327791528656
 20
189.3768057435522
 30
0.0
 10
105.9472376639768
 20
189.8552314406032
 30
0.0
  0
SPLINE
  5
B0
330
1F
100
AcDbEntity
  8
0
  6
Continuous
 62
     7
370
    25
100
AcDbSpline
210
0.0
220
0.0
230
1.0
 70
     8
 71
     3
 72
    11
 73
     7
 74
     0
 42
0.00000001
 43
0.00000001
 40
0.0
 40
0.0
 40
0.0
 40
0.0
 40
0.5153236037491696
 40
0.6774942715144305
 40
0.8591513231421469
 40
1.0
 40
1.0
 40
1.0
 40
1.0
 10
106.0784058940198
 20
190.9883146440413
 30
0.0
 10
105.9774295761618
 20
190.3874432157301
 30
0.0
 10
106.141082558674
 20
189.6355171725232
 30
0.0
 10
106.172632745548
 20
188.6381967747238
 30
0.0
 10
106.0268405561032
 20
188.1150271352203
 30
0.0
 10
105.811581676689
 20
187.7543005719435
 30
0.0
 10
105.6014305120451
 20
187.8620534327819
 30
0.0
  0
LINE
  5
B1
330
1F
100
AcDbEntity
  8
0
  6
Continuous
 62
     7
370
    25
100
AcDbLine
 10
105.7184038017
 20
189.6384387583
 30
0.0
 11
104.86211867
 21
188.8616051299
 31
0.0
  0
LINE
  5
B2
330
1F
100
AcDbEntity
  8
0
  6
Continuous
 62
     7
370
    25
100
AcDbLine
 10
104.86211867
 20
188.8616051299
 30
0.0
 11
104.8011498376
 21
188.9288096159
 31
0.0
  0
LINE
  5
B3
330
1F
100
AcDbEntity
  8
0
  6
Continuous
 62
     7
370
    25
100
AcDbLine
 10
104.8011498376
 20
188.9288096159
 30
0.0
 11
105.7184038017
 21
189.7609550062
 31
0.0
  0
LINE
  5
B4
330
1F
100
AcDbEntity
  8
0
  6
Continuous
 62
     7
370
    25
100
AcDbLine
 10
105.7184038017
 20
189.7609550062
 30
0.0
 11
105.7705575207
 21
190.1217948933
 31
0.0
  0
LINE
  5
B5
330
1F
100
AcDbEntity
  8
0
  6
Continuous
 62
     7
370
    25
100
AcDbLine
 10
104.5163115181
 20
188.667043233
 30
0.0
 11
104.9455893618
 21
188.667043233
 31
0.0
  0
SPLINE
  5
B6
330
1F
100
AcDbEntity
  8
0
  6
Continuous
 62
     7
370
    25
100
AcDbSpline
210
0.0
220
0.0
230
1.0
 70
     8
 71
     3
 72
     9
 73
     5
 74
     0
 42
0.00000001
 43
0.00000001
 40
0.0
 40
0.0
 40
0.0
 40
0.0
 40
0.5614388999927996
 40
1.0
 40
1.0
 40
1.0
 40
1.0
 10
104.9455893618299
 20
188.6670432330023
 30
0.0
 10
105.1624609979417
 20
188.7882876075524
 30
0.0
 10
105.5363684540051
 20
189.0236158021142
 30
0.0
 10
105.78177642474
 20
189.4339440023379
 30
0.0
 10
105.7184038017381
 20
189.6384387583388
 30
0.0
  0
SPLINE
  5
B7
330
1F
100
AcDbEntity
  8
0
  6
Continuous
 62
     7
370
    25
100
AcDbSpline
210
0.0
220
0.0
230
1.0
 70
     8
 71
     3
 72
    11
 73
     7
 74
     0
 42
0.00000001
 43
0.00000001
 40
0.0
 40
0.0
 40
0.0
 40
0.0
 40
0.4451043402220262
 40
0.6725795782757977
 40
0.8656184469022769
 40
1.0
 40
1.0
 40
1.0
 40
1.0
 10
112.5808115580155
 20
189.7609550061843
 30
0.0
 10
112.862735411052
 20
189.8643867979443
 30
0.0
 10
113.2949291080601
 20
189.9940936200067
 30
0.0
 10
113.9051891199679
 20
189.9041879700657
 30
0.0
 10
114.1992957397948
 20
189.8229083761252
 30
0.0
 10
114.5189210611261
 20
189.6971037507388
 30
0.0
 10
114.3059881892711
 20
189.6897008495492
 30
0.0
  0
SPLINE
  5
B8
330
1F
100
AcDbEntity
  8
0
  6
Continuous
 62
     7
370
    25
100
AcDbSpline
210
0.0
220
0.0
230
1.0
 70
     8
 71
     3
 72
    10
 73
     6
 74
     0
 42
0.00000001
 43
0.00000001
 40
0.0
 40
0.0
 40
0.0
 40
0.0
 40
0.4144912888966555
 40
0.6265332358658048
 40
1.0
 40
1.0
 40
1.0
 40
1.0
 10
112.5808115580155
 20
189.7609550061843
 30
0.0
 10
112.7911213003206
 20
189.6034262343513
 30
0.0
 10
113.1647602795455
 20
189.6022193058323
 30
0.0
 10
113.7503113465169
 20
189.5868996460841
 30
0.0
 10
114.0922970880749
 20
189.6449059680685
 30
0.0
 10
114.3059881892711
 20
189.6897008495492
 30
0.0
  0
SPLINE
  5
B9
330
1F
100
AcDbEntity
  8
0
  6
Continuous
 62
     7
370
    25
100
AcDbSpline
210
0.0
220
0.0
230
1.0
 70
     8
 71
     3
 72
    23
 73
    19
 74
     0
 42
0.00000001
 43
0.00000001
 40
0.0
 40
0.0
 40
0.0
 40
0.0
 40
0.1365724993958944
 40
0.2114041140786523
 40
0.2724281636611182
 40
0.3859726443129886
 40
0.4572466662629314
 40
0.5362679182578084
 40
0.574267835598475
 40
0.5959367315081117
 40
0.6199588765712293
 40
0.6604414468339623
 40
0.7111538995212155
 40
0.7720485982771017
 40
0.8362195877020661
 40
0.8940166634692259
 40
0.9538340259758007
 40
1.0
 40
1.0
 40
1.0
 40
1.0
 10
109.5613756436374
 20
188.8237467757191
 30
0.0
 10
109.3461294447105
 20
188.4265239334739
 30
0.0
 10
109.4245540356762
 20
187.7334731568987
 30
0.0
 10
109.3023987314428
 20
186.8697624973244
 30
0.0
 10
109.4401238574495
 20
186.0745268015532
 30
0.0
 10
109.812807096171
 20
185.3681609576532
 30
0.0
 10
110.3330162040286
 20
184.7059244131166
 30
0.0
 10
110.7089138706816
 20
184.2402127740864
 30
0.0
 10
111.1075532447403
 20
183.9949447097438
 30
0.0
 10
111.4163047160904
 20
184.0968707915179
 30
0.0
 10
111.3716062550355
 20
184.4297173608823
 30
0.0
 10
111.1088263708714
 20
184.6815706895965
 30
0.0
 10
110.8195406052321
 20
185.0745616067553
 30
0.0
 10
110.4756500337529
 20
185.5191926727013
 30
0.0
 10
110.2217192372421
 20
186.0463859769996
 30
0.0
 10
109.968659169393
 20
186.5715657899396
 30
0.0
 10
109.8660636937759
 20
187.0856310974087
 30
0.0
 10
109.795082350749
 20
187.4191861029721
 30
0.0
 10
109.7040125837981
 20
187.5405871184085
 30
0.0
  0
SPLINE
  5
BA
330
1F
100
AcDbEntity
  8
0
  6
Continuous
 62
     7
370
    25
100
AcDbSpline
210
0.0
220
0.0
230
1.0
 70
     8
 71
     3
 72
    15
 73
    11
 74
     0
 42
0.00000001
 43
0.00000001
 40
0.0
 40
0.0
 40
0.0
 40
0.0
 40
0.159049186500744
 40
0.2736639940493971
 40
0.4029659954882952
 40
0.5071624884379946
 40
0.5974666074877225
 40
0.6749540379105232
 40
0.7806364421415146
 40
1.0
 40
1.0
 40
1.0
 40
1.0
 10
109.7040125837981
 20
187.5405871184085
 30
0.0
 10
109.6462108934493
 20
187.1697951761022
 30
0.0
 10
109.8412037945163
 20
186.476930462749
 30
0.0
 10
109.9124254092457
 20
185.6466718217144
 30
0.0
 10
111.0470430536279
 20
184.5905936634296
 30
0.0
 10
109.9734240697451
 20
185.3565675907661
 30
0.0
 10
109.795123835059
 20
185.9110207857482
 30
0.0
 10
109.6452116888676
 20
186.5651033464622
 30
0.0
 10
109.4967823983951
 20
187.5139342370524
 30
0.0
 10
109.5914249112517
 20
188.3015857520791
 30
0.0
 10
109.5613756436374
 20
188.8237467757191
 30
0.0
  0
SPLINE
  5
BB
330
1F
100
AcDbEntity
  8
0
  6
Continuous
 62
     7
370
    25
100
AcDbSpline
210
0.0
220
0.0
230
1.0
 70
     8
 71
     3
 72
    21
 73
    17
 74
     0
 42
0.00000001
 43
0.00000001
 40
0.0
 40
0.0
 40
0.0
 40
0.0
 40
0.1387402147163861
 40
0.231208347885544
 40
0.2959050119379362
 40
0.3602108207910976
 40
0.4267026132773665
 40
0.4728949389396611
 40
0.4982866968132358
 40
0.5270346382926688
 40
0.5776416319501769
 40
0.6485994009470601
 40
0.7102349902404639
 40
0.7712322788983763
 40
0.8541615934595864
 40
1.0
 40
1.0
 40
1.0
 40
1.0
 10
106.2334228931616
 20
190.4732765357517
 30
0.0
 10
106.1879621871664
 20
190.1999928991609
 30
0.0
 10
106.1820021957376
 20
189.7139571465568
 30
0.0
 10
106.4426241624323
 20
189.1692340541647
 30
0.0
 10
106.5007160457692
 20
188.7191347988407
 30
0.0
 10
106.6837419575278
 20
188.3711141180532
 30
0.0
 10
106.7733642194363
 20
188.0033656576222
 30
0.0
 10
106.897115777627
 20
187.8006913387087
 30
0.0
 10
106.8828348548469
 20
187.4816217109072
 30
0.0
 10
106.7442284880383
 20
187.7991119607577
 30
0.0
 10
106.6623762546408
 20
188.0161262637316
 30
0.0
 10
106.5160678506812
 20
188.4035139311003
 30
0.0
 10
106.3671723224193
 20
188.6943365434455
 30
0.0
 10
106.275813202295
 20
189.3556201163092
 30
0.0
 10
106.2212358467951
 20
188.2996320886306
 30
0.0
 10
106.1807201812372
 20
188.078113382169
 30
0.0
 10
105.8888899880036
 20
187.8289273703926
 30
0.0
  0
SPLINE
  5
BC
330
1F
100
AcDbEntity
  8
0
  6
Continuous
 62
     7
370
    25
100
AcDbSpline
210
0.0
220
0.0
230
1.0
 70
     8
 71
     3
 72
    15
 73
    11
 74
     0
 42
0.00000001
 43
0.00000001
 40
0.0
 40
0.0
 40
0.0
 40
0.0
 40
0.1957696071379987
 40
0.3685377026591086
 40
0.5060325385108074
 40
0.7192197191563038
 40
0.7473110832205275
 40
0.8282022061195413
 40
0.9018321093900898
 40
1.0
 40
1.0
 40
1.0
 40
1.0
 10
105.8888899880036
 20
187.8289273703926
 30
0.0
 10
106.2203894545684
 20
187.76148295298
 30
0.0
 10
106.7415470715743
 20
187.3864327459922
 30
0.0
 10
107.2082042607593
 20
186.6307068869797
 30
0.0
 10
107.5791586472864
 20
185.9252742692952
 30
0.0
 10
107.6846882095989
 20
184.9021405047728
 30
0.0
 10
107.0590042359081
 20
184.8643607804794
 30
0.0
 10
107.0556238424932
 20
185.3053122483348
 30
0.0
 10
106.8917284008447
 20
185.6123470743459
 30
0.0
 10
106.7680861824424
 20
186.0496355851915
 30
0.0
 10
106.7229157274204
 20
185.594960977471
 30
0.0
  0
LINE
  5
BD
330
1F
100
AcDbEntity
  8
0
  6
Continuous
 62
     7
370
    25
100
AcDbLine
 10
106.7229157274
 20
185.5949609775
 30
0.0
 11
106.7063687388
 21
185.2355362815
 31
0.0
  0
SPLINE
  5
BE
330
1F
100
AcDbEntity
  8
0
  6
Continuous
 62
     7
370
    25
100
AcDbSpline
210
0.0
220
0.0
230
1.0
 70
     8
 71
     3
 72
    19
 73
    15
 74
     0
 42
0.00000001
 43
0.00000001
 40
0.0
 40
0.0
 40
0.0
 40
0.0
 40
0.1141975444436141
 40
0.1603421523427952
 40
0.2388333124243473
 40
0.2818532789380749
 40
0.3581710684797116
 40
0.4470070952957999
 40
0.5298396283702437
 40
0.6274753260471223
 40
0.7206192304680132
 40
0.7882959243815737
 40
0.8820198163137289
 40
1.0
 40
1.0
 40
1.0
 40
1.0
 10
106.7063687388018
 20
185.2355362815078
 30
0.0
 10
106.607583613803
 20
185.1665496567213
 30
0.0
 10
106.3944314930243
 20
184.5758370190688
 30
0.0
 10
105.8697907172115
 20
184.8749157113689
 30
0.0
 10
105.8567769986474
 20
185.2611665709318
 30
0.0
 10
105.670068354367
 20
185.5828384945676
 30
0.0
 10
105.7005779164108
 20
186.3207412543646
 30
0.0
 10
105.4155868129401
 20
185.4405653375958
 30
0.0
 10
104.9890516415235
 20
185.2164244319685
 30
0.0
 10
104.5774743023281
 20
184.7296294105047
 30
0.0
 10
103.9072787215724
 20
184.9460409633185
 30
0.0
 10
103.8724719250086
 20
185.5349121693006
 30
0.0
 10
103.7984433228792
 20
185.9715597209351
 30
0.0
 10
104.0868692362872
 20
186.8111532844308
 30
0.0
 10
103.8723947523867
 20
186.3852507910912
 30
0.0
  0
SPLINE
  5
BF
330
1F
100
AcDbEntity
  8
0
  6
Continuous
 62
     7
370
    25
100
AcDbSpline
210
0.0
220
0.0
230
1.0
 70
     8
 71
     3
 72
    12
 73
     8
 74
     0
 42
0.00000001
 43
0.00000001
 40
0.0
 40
0.0
 40
0.0
 40
0.0
 40
0.3306399359847699
 40
0.4192381162427981
 40
0.5197569966662581
 40
0.6067477012025632
 40
1.0
 40
1.0
 40
1.0
 40
1.0
 10
103.058858947421
 20
186.3389375225953
 30
0.0
 10
102.9816385742709
 20
186.1225732949657
 30
0.0
 10
102.8257661749599
 20
185.8970337695572
 30
0.0
 10
103.061766159389
 20
185.4825609272314
 30
0.0
 10
103.2038019321772
 20
185.703974222246
 30
0.0
 10
103.5007292848196
 20
185.9061328021254
 30
0.0
 10
103.6735259947962
 20
186.2309208338591
 30
0.0
 10
103.8723947523868
 20
186.3852507910912
 30
0.0
  0
SPLINE
  5
C0
330
1F
100
AcDbEntity
  8
0
  6
Continuous
 62
     7
370
    25
100
AcDbSpline
210
0.0
220
0.0
230
1.0
 70
     8
 71
     3
 72
    20
 73
    16
 74
     0
 42
0.00000001
 43
0.00000001
 40
0.0
 40
0.0
 40
0.0
 40
0.0
 40
0.1194849432092868
 40
0.1879531066944838
 40
0.2470280857757493
 40
0.2714290688757318
 40
0.3038208121340207
 40
0.3495503320280759
 40
0.419623868657864
 40
0.4803631003834062
 40
0.5130628643935655
 40
0.5826830781188829
 40
0.6303886124015999
 40
0.7271411902580469
 40
1.0
 40
1.0
 40
1.0
 40
1.0
 10
104.3855865381238
 20
188.5397987499926
 30
0.0
 10
104.6294477969935
 20
188.4873305690671
 30
0.0
 10
105.0061850860553
 20
188.5313645515329
 30
0.0
 10
105.4758436930881
 20
188.8039457458876
 30
0.0
 10
105.6156260476546
 20
189.0106159110354
 30
0.0
 10
105.8062382215006
 20
189.3065595001372
 30
0.0
 10
105.7545231445428
 20
188.9566602420317
 30
0.0
 10
105.7824568507913
 20
188.7199591799599
 30
0.0
 10
105.7442626035991
 20
188.3360280316009
 30
0.0
 10
105.6050417865382
 20
188.0225148661995
 30
0.0
 10
105.3036586100828
 20
187.8425384108628
 30
0.0
 10
104.9850332509267
 20
187.9507915815481
 30
0.0
 10
104.5671572015588
 20
187.8024015299456
 30
0.0
 10
103.818003265907
 20
187.4184953340188
 30
0.0
 10
103.2500759017303
 20
186.8706653528748
 30
0.0
 10
103.058858947421
 20
186.3389375225953
 30
0.0
  0
SPLINE
  5
C1
330
1F
100
AcDbEntity
  8
0
  6
Continuous
 62
     7
370
    25
100
AcDbSpline
210
0.0
220
0.0
230
1.0
 70
     8
 71
     3
 72
    11
 73
     7
 74
     0
 42
0.00000001
 43
0.00000001
 40
0.0
 40
0.0
 40
0.0
 40
0.0
 40
0.3283921125207473
 40
0.5071209662437131
 40
0.734773812704903
 40
1.0
 40
1.0
 40
1.0
 40
1.0
 10
105.7705575207491
 20
190.3014354810306
 30
0.0
 10
105.561536230114
 20
190.1618014240318
 30
0.0
 10
105.2186773481933
 20
189.9579271522701
 30
0.0
 10
104.8560064770222
 20
189.5155874525171
 30
0.0
 10
104.5741791485824
 20
189.0879408557619
 30
0.0
 10
104.3601355494757
 20
188.7545491663307
 30
0.0
 10
104.3855865381238
 20
188.5397987499926
 30
0.0
  0
SPLINE
  5
C2
330
1F
100
AcDbEntity
  8
0
  6
Continuous
 62
     7
370
    25
100
AcDbSpline
210
0.0
220
0.0
230
1.0
 70
     8
 71
     3
 72
     8
 73
     4
 74
     0
 42
0.00000001
 43
0.00000001
 40
0.0
 40
0.0
 40
0.0
 40
0.0
 40
1.0
 40
1.0
 40
1.0
 40
1.0
 10
105.810107241659
 20
191.0431772625204
 30
0.0
 10
105.7991792206728
 20
190.795807660682
 30
0.0
 10
105.7859959803695
 20
190.5485604001854
 30
0.0
 10
105.7705575207491
 20
190.3014354810306
 30
0.0
  0
ARC
  5
C3
330
1F
100
AcDbEntity
  8
0
  6
Continuous
 62
     7
370
    25
100
AcDbCircle
 10
107.8409526956
 20
187.6279482757
 30
0.0
 40
3.973427020885687
100
AcDbArc
 50
110.2330592425
 51
120.7375793494
  0
SPLINE
  5
C4
330
1F
100
AcDbEntity
  8
0
  6
Continuous
 62
     7
370
    25
100
AcDbSpline
210
0.0
220
0.0
230
1.0
 70
     8
 71
     3
 72
    94
 73
    90
 74
     0
 42
0.00000001
 43
0.00000001
 40
0.0
 40
0.0
 40
0.0
 40
0.0
 40
0.0294888115259031
 40
0.0494381013079064
 40
0.0611253234939733
 40
0.0786555589689384
 40
0.09348720416108
 40
0.0978074200222283
 40
0.1024256653891572
 40
0.106160411037519
 40
0.1106117326952
 40
0.1191332293802397
 40
0.1284907889413605
 40
0.1355102132329318
 40
0.1438566798521603
 40
0.1539245783075648
 40
0.1609712505675163
 40
0.1727269334770972
 40
0.1793507599857745
 40
0.1879106433209338
 40
0.1937919587914586
 40
0.1961001702368886
 40
0.2003318966394627
 40
0.2061330701611252
 40
0.2160468510414383
 40
0.2340760855158748
 40
0.2580639942859806
 40
0.2763359288435537
 40
0.2826889875516305
 40
0.2915356523854174
 40
0.3077442422685944
 40
0.3429612180783886
 40
0.3631006789027824
 40
0.4001601001975586
 40
0.4199116216663077
 40
0.4416904336099302
 40
0.4459862982032417
 40
0.4505629735201157
 40
0.4583785126589455
 40
0.46443913481401
 40
0.4766236091869663
 40
0.4899419530775954
 40
0.4930971617820397
 40
0.4993877621651415
 40
0.5082707419865373
 40
0.5279914414957843
 40
0.5411824433709747
 40
0.5452834352717822
 40
0.5516016308265966
 40
0.5553575352425381
 40
0.5611642884419327
 40
0.5696197668593003
 40
0.5771248211520275
 40
0.583985345749709
 40
0.5917814514236205
 40
0.601160261730002
 40
0.6108390525684617
 40
0.618352806449118
 40
0.6206054287466763
 40
0.6241458299031615
 40
0.6384337501453754
 40
0.6485111551848292
 40
0.6579223953703724
 40
0.6693285620258217
 40
0.6842947067597253
 40
0.6993595690690912
 40
0.7129264795217263
 40
0.7207865593006569
 40
0.7284940552781922
 40
0.7400165010092913
 40
0.7502782996449489
 40
0.7573577023803556
 40
0.763818436225779
 40
0.7682219775317514
 40
0.776874998080444
 40
0.7857728449278586
 40
0.8061272818925076
 40
0.8292478102117582
 40
0.8488030396193421
 40
0.8689186441332271
 40
0.8850753815235847
 40
0.9029250926011106
 40
0.9133627135015043
 40
0.9244446701691312
 40
0.9331550065295527
 40
0.9489052149777678
 40
0.9656377937174406
 40
0.9807647659847825
 40
1.0
 40
1.0
 40
1.0
 40
1.0
 10
106.4667841050671
 20
191.3561895467263
 30
0.0
 10
106.8195916804908
 20
191.5919842877998
 30
0.0
 10
107.5208934926903
 20
191.7729389051186
 30
0.0
 10
108.3716375196543
 20
191.707552389296
 30
0.0
 10
109.0896552843948
 20
191.6877950375419
 30
0.0
 10
109.5788141409606
 20
191.4443338954423
 30
0.0
 10
110.3540303646484
 20
191.4107618910023
 30
0.0
 10
110.2346143634377
 20
191.0032572861792
 30
0.0
 10
110.0291706222826
 20
190.9972695993519
 30
0.0
 10
109.904989497382
 20
190.8581733682702
 30
0.0
 10
109.7109751999053
 20
190.7252538122081
 30
0.0
 10
109.4282927747432
 20
190.5793742084756
 30
0.0
 10
109.0894823087335
 20
190.4911230470383
 30
0.0
 10
108.7682997560006
 20
190.3322516379585
 30
0.0
 10
108.4030771755016
 20
190.3848825944394
 30
0.0
 10
108.0395993422113
 20
190.3087011435451
 30
0.0
 10
107.6562029070944
 20
190.4700265419965
 30
0.0
 10
107.2895737522891
 20
190.5026450852854
 30
0.0
 10
106.9664998875066
 20
190.7017070432953
 30
0.0
 10
106.6786627966169
 20
190.8310334098202
 30
0.0
 10
106.5357678257069
 20
190.9726156529591
 30
0.0
 10
106.3165734857645
 20
191.0852210320457
 30
0.0
 10
106.4960313725403
 20
190.8243488104808
 30
0.0
 10
106.7142814039436
 20
190.7483626716968
 30
0.0
 10
107.0649495042632
 20
190.3690118303816
 30
0.0
 10
107.66771602537
 20
189.9776049058402
 30
0.0
 10
108.4156441082424
 20
189.5726464088606
 30
0.0
 10
109.0497828882319
 20
189.2748800038063
 30
0.0
 10
109.5127429289229
 20
189.2203394417352
 30
0.0
 10
109.9891738289799
 20
189.159571904592
 30
0.0
 10
110.489520507078
 20
190.0034239743663
 30
0.0
 10
111.4648965746291
 20
190.3386818833221
 30
0.0
 10
112.6696451883019
 20
190.8183676366226
 30
0.0
 10
113.8510017191148
 20
190.7738601616671
 30
0.0
 10
114.7830166282203
 20
190.3082075862729
 30
0.0
 10
115.5195021872279
 20
189.9450464440488
 30
0.0
 10
115.4215526076407
 20
189.4383543056643
 30
0.0
 10
115.1338062600859
 20
189.4377999889831
 30
0.0
 10
114.9394730411564
 20
189.6160621135858
 30
0.0
 10
114.5603565616932
 20
189.6614486246745
 30
0.0
 10
114.1116589435392
 20
189.5228756136142
 30
0.0
 10
113.7826875768667
 20
189.4682211215703
 30
0.0
 10
113.3511644370288
 20
189.4606688401445
 30
0.0
 10
113.7438492797888
 20
189.2255288467367
 30
0.0
 10
114.0548131130312
 20
189.0068545149683
 30
0.0
 10
114.5346037864273
 20
188.5662971150162
 30
0.0
 10
114.8161341246636
 20
188.1269730667407
 30
0.0
 10
114.9056219592194
 20
187.8040234366743
 30
0.0
 10
114.8956272932592
 20
187.5967375827579
 30
0.0
 10
114.7904767691748
 20
187.3925381056463
 30
0.0
 10
114.5722356948995
 20
187.2460318571709
 30
0.0
 10
114.2737936441561
 20
187.1562248698885
 30
0.0
 10
113.9336680177756
 20
187.2186135670102
 30
0.0
 10
113.682964606207
 20
187.0017029223105
 30
0.0
 10
113.3948078034284
 20
186.8237800643513
 30
0.0
 10
112.9934348324113
 20
186.7951886150541
 30
0.0
 10
112.6865638717065
 20
186.6977840000976
 30
0.0
 10
112.2632559168558
 20
186.8270514742804
 30
0.0
 10
112.2952521219566
 20
186.6094572276257
 30
0.0
 10
112.4146061382091
 20
186.3614165557111
 30
0.0
 10
112.7367069310041
 20
186.110520305914
 30
0.0
 10
113.0964931592418
 20
185.7758016202443
 30
0.0
 10
113.1052515944613
 20
185.2755667438832
 30
0.0
 10
112.6517620094944
 20
184.9524394105947
 30
0.0
 10
112.068615848398
 20
184.8470556973024
 30
0.0
 10
111.4403383622302
 20
185.0502163614725
 30
0.0
 10
111.0451145813359
 20
185.173306146291
 30
0.0
 10
110.5699742080816
 20
185.6648828482811
 30
0.0
 10
110.9017388984192
 20
185.1248605402818
 30
0.0
 10
111.0971695051798
 20
184.8675353541978
 30
0.0
 10
111.446804865225
 20
184.5959874763496
 30
0.0
 10
111.5743778346714
 20
184.2850117325447
 30
0.0
 10
111.5667928764464
 20
183.9979122981453
 30
0.0
 10
111.3123100755285
 20
183.8407254548367
 30
0.0
 10
110.9767169585609
 20
183.8769205940862
 30
0.0
 10
110.5606112331527
 20
184.2254627129547
 30
0.0
 10
110.0196194657434
 20
184.7276163043294
 30
0.0
 10
109.5514569812716
 20
185.5007129375833
 30
0.0
 10
109.2675377960065
 20
186.3410975729747
 30
0.0
 10
109.1141070300532
 20
187.1192066104668
 30
0.0
 10
109.2018789576308
 20
187.8963822634042
 30
0.0
 10
109.1559957630077
 20
188.4765808272914
 30
0.0
 10
109.6005791051121
 20
189.1163426562855
 30
0.0
 10
108.9768528719101
 20
189.1340332036224
 30
0.0
 10
108.5874777094162
 20
189.3981194712127
 30
0.0
 10
108.0007325872034
 20
189.5532371377845
 30
0.0
 10
107.4661399990839
 20
189.9648482367919
 30
0.0
 10
106.8647163681593
 20
190.3625966897875
 30
0.0
 10
106.5152130138144
 20
190.7025357428296
 30
0.0
 10
106.3073516196906
 20
190.8758632461301
 30
0.0
  0
SPLINE
  5
C5
330
1F
100
AcDbEntity
  8
0
  6
Continuous
 62
     7
370
    25
100
AcDbSpline
210
0.0
220
0.0
230
1.0
 70
     8
 71
     3
 72
    24
 73
    20
 74
     0
 42
0.00000001
 43
0.00000001
 40
0.0
 40
0.0
 40
0.0
 40
0.0
 40
0.0667067877212644
 40
0.1361634853167441
 40
0.2255660089320756
 40
0.2968750732681834
 40
0.4107111954092292
 40
0.4609484590316643
 40
0.521564899022046
 40
0.5356904821171734
 40
0.5512779416033686
 40
0.5914187229614923
 40
0.654141604272026
 40
0.7177697810553126
 40
0.7848370966649655
 40
0.8555945530621615
 40
0.9076516695584552
 40
0.9506253241185613
 40
1.0
 40
1.0
 40
1.0
 40
1.0
 10
106.3073516196906
 20
190.8758632461301
 30
0.0
 10
106.2404963044554
 20
190.6451735369015
 30
0.0
 10
106.5660616297399
 20
190.227883072435
 30
0.0
 10
107.1241142775925
 20
189.7364556029287
 30
0.0
 10
107.7874373611201
 20
189.2906881348021
 30
0.0
 10
108.3959124465553
 20
188.5820191505038
 30
0.0
 10
108.7078314724572
 20
187.7623482706835
 30
0.0
 10
108.6138168059035
 20
187.0521271391513
 30
0.0
 10
108.7604696463647
 20
186.4803661355207
 30
0.0
 10
108.4146564671463
 20
186.3819629549887
 30
0.0
 10
108.2290010416586
 20
186.5602406121199
 30
0.0
 10
107.9516040603198
 20
186.8342019271988
 30
0.0
 10
107.5391531028365
 20
187.2355364546113
 30
0.0
 10
107.1797954465892
 20
187.7942505058072
 30
0.0
 10
106.9243768032947
 20
188.4288558129646
 30
0.0
 10
106.6526190214481
 20
189.0306293852727
 30
0.0
 10
106.7427811413905
 20
189.6284366987235
 30
0.0
 10
106.4181462269101
 20
190.0339287884841
 30
0.0
 10
106.3686963773936
 20
190.352842963935
 30
0.0
 10
106.2334228931616
 20
190.4732765357517
 30
0.0
  0
SPLINE
  5
C6
330
1F
100
AcDbEntity
  8
0
  6
Continuous
 62
     7
370
    25
100
AcDbSpline
210
0.0
220
0.0
230
1.0
 70
     8
 71
     3
 72
     8
 73
     4
 74
     0
 42
0.00000001
 43
0.00000001
 40
0.0
 40
0.0
 40
0.0
 40
0.0
 40
1.0
 40
1.0
 40
1.0
 40
1.0
 10
104.0902077370898
 20
187.0527435293674
 30
0.0
 10
104.2909462953693
 20
187.1884224537991
 30
0.0
 10
104.5030626236613
 20
187.3055781920974
 30
0.0
 10
104.7130638631172
 20
187.4258818880934
 30
0.0
  0
ARC
  5
C7
330
1F
100
AcDbEntity
  8
0
  6
Continuous
 62
     7
370
    25
100
AcDbCircle
 10
105.2108724826
 20
187.730347613
 30
0.0
 40
0.0317232812309309
100
AcDbArc
 50
261.7542388523
 51
100.514237521
  0
SPLINE
  5
C8
330
1F
100
AcDbEntity
  8
0
  6
Continuous
 62
     7
370
    25
100
AcDbSpline
210
0.0
220
0.0
230
1.0
 70
     8
 71
     3
 72
    13
 73
     9
 74
     0
 42
0.00000001
 43
0.00000001
 40
0.0
 40
0.0
 40
0.0
 40
0.0
 40
0.3102980306189443
 40
0.476972583999045
 40
0.6297901865575781
 40
0.738270824110153
 40
0.8785410360778105
 40
1.0
 40
1.0
 40
1.0
 40
1.0
 10
105.2050836230083
 20
187.7615382474667
 30
0.0
 10
104.883590148522
 20
187.7551730697826
 30
0.0
 10
104.344740551148
 20
187.6479447127597
 30
0.0
 10
103.8637031685065
 20
187.1767350179306
 30
0.0
 10
103.4718474966678
 20
186.9191533378454
 30
0.0
 10
103.29142230669
 20
186.5222530131811
 30
0.0
 10
103.1146362797074
 20
186.1709748143976
 30
0.0
 10
103.0643927475843
 20
185.892573427214
 30
0.0
 10
103.058858947421
 20
185.763787837587
 30
0.0
  0
SPLINE
  5
C9
330
1F
100
AcDbEntity
  8
0
  6
Continuous
 62
     7
370
    25
100
AcDbSpline
210
0.0
220
0.0
230
1.0
 70
     8
 71
     3
 72
     8
 73
     4
 74
     0
 42
0.00000001
 43
0.00000001
 40
0.0
 40
0.0
 40
0.0
 40
0.0
 40
1.0
 40
1.0
 40
1.0
 40
1.0
 10
103.058858947421
 20
185.763787837587
 30
0.0
 10
103.0463006360434
 20
185.6370616735234
 30
0.0
 10
103.0968781235353
 20
185.6628682965011
 30
0.0
 10
103.2105914098968
 20
185.8412077065202
 30
0.0
  0
SPLINE
  5
CA
330
1F
100
AcDbEntity
  8
0
  6
Continuous
 62
     7
370
    25
100
AcDbSpline
210
0.0
220
0.0
230
1.0
 70
     8
 71
     3
 72
    12
 73
     8
 74
     0
 42
0.00000001
 43
0.00000001
 40
0.0
 40
0.0
 40
0.0
 40
0.0
 40
0.3465778513033815
 40
0.5050832576723313
 40
0.6626050721423455
 40
0.8225222338613173
 40
1.0
 40
1.0
 40
1.0
 40
1.0
 10
103.2105914098968
 20
185.8412077065202
 30
0.0
 10
103.4193403555102
 20
185.9917584304675
 30
0.0
 10
103.5899065553459
 20
186.3355640154503
 30
0.0
 10
103.9752606764533
 20
186.6317523993454
 30
0.0
 10
104.2396011315538
 20
186.8554396569286
 30
0.0
 10
104.4941702638972
 20
187.1109049150079
 30
0.0
 10
104.6772298391157
 20
187.2753471737736
 30
0.0
 10
104.7579147369458
 20
187.3768988712793
 30
0.0
  0
ARC
  5
CB
330
1F
100
AcDbEntity
  8
0
  6
Continuous
 62
     7
370
    25
100
AcDbCircle
 10
104.7476651872
 20
187.412539125
 30
0.0
 40
0.0370847806431468
100
AcDbArc
 50
286.0443633955
 51
158.9126507801
  0
ARC
  5
CC
330
1F
100
AcDbEntity
  8
0
  6
Continuous
 62
     7
370
    25
100
AcDbCircle
 10
107.3023329329
 20
185.1429156459
 30
0.0
 40
0.1109315414407874
100
AcDbArc
 50
222.2285947606
 51
26.6928093901
  0
SPLINE
  5
CD
330
1F
100
AcDbEntity
  8
0
  6
Continuous
 62
     7
370
    25
100
AcDbSpline
210
0.0
220
0.0
230
1.0
 70
     8
 71
     3
 72
     9
 73
     5
 74
     0
 42
0.00000001
 43
0.00000001
 40
0.0
 40
0.0
 40
0.0
 40
0.0
 40
0.7788255974538792
 40
1.0
 40
1.0
 40
1.0
 40
1.0
 10
106.3309355886063
 20
187.3414503356636
 30
0.0
 10
106.2580734827624
 20
187.5476478360519
 30
0.0
 10
107.4816307436293
 20
186.0603310913902
 30
0.0
 10
106.7613690719476
 20
186.6058922709394
 30
0.0
 10
106.7812634033935
 20
186.6907317469716
 30
0.0
  0
LINE
  5
CE
330
1F
100
AcDbEntity
  8
0
  6
Continuous
 62
     7
370
    25
100
AcDbLine
 10
106.7812634034
 20
186.690731747
 30
0.0
 11
106.3309355886
 21
187.2482404932
 31
0.0
  0
LINE
  5
CF
330
1F
100
AcDbEntity
  8
0
  6
Continuous
 62
     7
370
    25
100
AcDbLine
 10
106.1460998749
 20
187.3768988713
 30
0.0
 11
106.0719548431
 21
187.3768988713
 31
0.0
  0
SPLINE
  5
D0
330
1F
100
AcDbEntity
  8
0
  6
Continuous
 62
     7
370
    25
100
AcDbSpline
210
0.0
220
0.0
230
1.0
 70
     8
 71
     3
 72
     9
 73
     5
 74
     0
 42
0.00000001
 43
0.00000001
 40
0.0
 40
0.0
 40
0.0
 40
0.0
 40
0.5997031366962615
 40
1.0
 40
1.0
 40
1.0
 40
1.0
 10
106.0719548431177
 20
187.3768988712793
 30
0.0
 10
106.4162748201801
 20
186.9740171792566
 30
0.0
 10
106.7157768457839
 20
186.1623422864143
 30
0.0
 10
107.1842543635582
 20
185.4221284380239
 30
0.0
 10
107.2201915357546
 20
185.0683596416653
 30
0.0
  0
SPLINE
  5
D1
330
1F
100
AcDbEntity
  8
0
  6
Continuous
 62
     7
370
    25
100
AcDbSpline
210
0.0
220
0.0
230
1.0
 70
     8
 71
     3
 72
    12
 73
     8
 74
     0
 42
0.00000001
 43
0.00000001
 40
0.0
 40
0.0
 40
0.0
 40
0.0
 40
0.4285794539303312
 40
0.6363099363689685
 40
0.7491401408839462
 40
0.9018244606621096
 40
1.0
 40
1.0
 40
1.0
 40
1.0
 10
107.4014422526651
 20
185.1927468571763
 30
0.0
 10
107.379177657815
 20
185.5832134436076
 30
0.0
 10
107.4190583849356
 20
186.3032385066915
 30
0.0
 10
106.9139917216111
 20
186.854779247047
 30
0.0
 10
106.6625675844589
 20
187.2658618499532
 30
0.0
 10
106.3507464919519
 20
187.4075723965899
 30
0.0
 10
106.1037268245729
 20
187.5829470123741
 30
0.0
 10
106.3309355886063
 20
187.3414503356636
 30
0.0
  0
LINE
  5
D2
330
1F
100
AcDbEntity
  8
0
  6
Continuous
 62
     7
370
    25
100
AcDbLine
 10
106.3309355886
 20
187.2482404932
 30
0.0
 11
106.1460998749
 21
187.3768988713
 31
0.0
  0
SPLINE
  5
D3
330
1F
100
AcDbEntity
  8
0
  6
Continuous
 62
     7
370
    25
100
AcDbSpline
210
0.0
220
0.0
230
1.0
 70
     8
 71
     3
 72
    12
 73
     8
 74
     0
 42
0.00000001
 43
0.00000001
 40
0.0
 40
0.0
 40
0.0
 40
0.0
 40
0.4265271747062462
 40
0.6177777596096031
 40
0.7705677330698819
 40
0.9197916314704171
 40
1.0
 40
1.0
 40
1.0
 40
1.0
 10
105.206322748496
 20
187.6989522870838
 30
0.0
 10
104.9765535433912
 20
187.6660341031863
 30
0.0
 10
104.7015735511938
 20
187.5458370913395
 30
0.0
 10
104.3364932486551
 20
187.3170433631946
 30
0.0
 10
104.1853390319958
 20
187.2073522705538
 30
0.0
 10
103.852849874429
 20
186.9865303116728
 30
0.0
 10
104.080991987504
 20
187.0238547190697
 30
0.0
 10
104.0902077370898
 20
187.0527435293674
 30
0.0
  0
SPLINE
  5
D4
330
1F
100
AcDbEntity
  8
0
  6
Continuous
 62
     7
370
    25
100
AcDbSpline
210
0.0
220
0.0
230
1.0
 70
     8
 71
     3
 72
    10
 73
     6
 74
     0
 42
0.00000001
 43
0.00000001
 40
0.0
 40
0.0
 40
0.0
 40
0.0
 40
0.4602376865385072
 40
0.707670117924835
 40
1.0
 40
1.0
 40
1.0
 40
1.0
 10
105.7705575207491
 20
190.1217948933261
 30
0.0
 10
105.415385114047
 20
190.0733276291626
 30
0.0
 10
105.2280001642986
 20
189.6170967061364
 30
0.0
 10
104.7258535371087
 20
189.1808985745742
 30
0.0
 10
104.5987624097394
 20
188.8379590093733
 30
0.0
 10
104.5163115180526
 20
188.6670432330023
 30
0.0
  0
LINE
  5
D5
330
1F
100
AcDbEntity
  8
0
  6
Continuous
 62
     7
370
    25
100
AcDbLine
 10
105.5308309912
 20
187.4575686242
 30
0.0
 11
105.5308309912
 21
186.1779088715
 31
0.0
  0
SPLINE
  5
D6
330
1F
100
AcDbEntity
  8
0
  6
Continuous
 62
     7
370
    25
100
AcDbSpline
210
0.0
220
0.0
230
1.0
 70
     8
 71
     3
 72
    12
 73
     8
 74
     0
 42
0.00000001
 43
0.00000001
 40
0.0
 40
0.0
 40
0.0
 40
0.0
 40
0.2640875462496311
 40
0.4173756824552489
 40
0.6018225082769932
 40
0.7304313733087162
 40
1.0
 40
1.0
 40
1.0
 40
1.0
 10
105.2973587060362
 20
187.5405871184085
 30
0.0
 10
105.1489618714647
 20
187.4127466212283
 30
0.0
 10
104.973369766044
 20
187.1529038902679
 30
0.0
 10
104.7880112529751
 20
186.7537265223758
 30
0.0
 10
104.6771486171382
 20
186.4124347304225
 30
0.0
 10
104.5466414896215
 20
186.0593902499609
 30
0.0
 10
104.5551281936044
 20
185.4969401465796
 30
0.0
 10
104.7579147369458
 20
185.8046972789584
 30
0.0
  0
SPLINE
  5
D7
330
1F
100
AcDbEntity
  8
0
  6
Continuous
 62
     7
370
    25
100
AcDbSpline
210
0.0
220
0.0
230
1.0
 70
     8
 71
     3
 72
    12
 73
     8
 74
     0
 42
0.00000001
 43
0.00000001
 40
0.0
 40
0.0
 40
0.0
 40
0.0
 40
0.3760956996567153
 40
0.5106936270467954
 40
0.6483710438642555
 40
0.7940657212793727
 40
1.0
 40
1.0
 40
1.0
 40
1.0
 10
115.0774219417505
 20
189.6897008495492
 30
0.0
 10
114.7358504075663
 20
189.7734398971234
 30
0.0
 10
114.3019385866005
 20
190.0279742007497
 30
0.0
 10
113.6880907851945
 20
190.0714383366972
 30
0.0
 10
113.2947005674737
 20
190.078494392617
 30
0.0
 10
112.8337198252741
 20
190.0102087261818
 30
0.0
 10
112.5330327384489
 20
189.8612193496334
 30
0.0
 10
112.3546630146952
 20
189.7872576084684
 30
0.0
  0
SPLINE
  5
D8
330
1F
100
AcDbEntity
  8
0
  6
Continuous
 62
     7
370
    25
100
AcDbSpline
210
0.0
220
0.0
230
1.0
 70
     8
 71
     3
 72
    18
 73
    14
 74
     0
 42
0.00000001
 43
0.00000001
 40
0.0
 40
0.0
 40
0.0
 40
0.0
 40
0.127435928898176
 40
0.2059677603896535
 40
0.2537428620309266
 40
0.3444733829594363
 40
0.4140433037833396
 40
0.5386784167048464
 40
0.6214088810608962
 40
0.7071471829601836
 40
0.8530191537364166
 40
0.9352523520912003
 40
1.0
 40
1.0
 40
1.0
 40
1.0
 10
114.3724941477145
 20
188.4608291227584
 30
0.0
 10
114.5258251844019
 20
188.3134334375656
 30
0.0
 10
114.6925396471225
 20
188.068059373157
 30
0.0
 10
114.7757863221393
 20
187.6194262106351
 30
0.0
 10
114.4988524745882
 20
187.3782191132379
 30
0.0
 10
114.1766993126418
 20
187.3161056660078
 30
0.0
 10
113.7342754384596
 20
187.2519073795544
 30
0.0
 10
113.3601336440278
 20
187.0109010318946
 30
0.0
 10
112.8820162190253
 20
186.9876430138749
 30
0.0
 10
112.4373493089969
 20
187.1997527553754
 30
0.0
 10
112.0166695981299
 20
187.5312183385098
 30
0.0
 10
111.8124249213413
 20
187.8363739748341
 30
0.0
 10
111.5721199998083
 20
188.1421402891914
 30
0.0
 10
111.7527590310212
 20
188.0669778250506
 30
0.0
  0
LINE
  5
D9
330
1F
100
AcDbEntity
  8
0
  6
Continuous
 62
     7
370
    25
100
AcDbLine
 10
109.9319133949
 20
189.126094479
 30
0.0
 11
110.2757319512
 21
189.0843327994
 31
0.0
  0
INSERT
  5
E5
330
1F
100
AcDbEntity
  8
0
  6
Continuous
 62
     7
370
     0
100
AcDbBlockReference
  2
SW_CENTERMARKSYMBOL_0
 10
105.8926995235
 20
181.8013345925
 30
0.0
  0
INSERT
  5
F1
330
1F
100
AcDbEntity
  8
0
  6
Continuous
 62
     7
370
     0
100
AcDbBlockReference
  2
SW_CENTERMARKSYMBOL_1
 10
105.3690197813
 20
181.8013345925
 30
0.0
  0
INSERT
  5
FD
330
1F
100
AcDbEntity
  8
0
  6
Continuous
 62
     7
370
     0
100
AcDbBlockReference
  2
SW_CENTERMARKSYMBOL_2
 10
104.3360626272
 20
182.8596292034
 30
0.0
  0
ENDSEC
  0
SECTION
  2
OBJECTS
  0
DICTIONARY
  5
C
330
0
100
AcDbDictionary
281
     1
  3
ACAD_GROUP
350
D
  3
ACAD_LAYOUT
350
1A
  3
ACAD_MLINESTYLE
350
17
  3
ACAD_PLOTSETTINGS
350
19
  3
ACAD_PLOTSTYLENAME
350
E
  3
ACAD_SCALELIST
350
47
  3
DWGPROPS
350
FE
  0
DICTIONARY
  5
D
102
{ACAD_REACTORS
330
C
102
}
330
C
100
AcDbDictionary
281
     1
  0
DICTIONARY
  5
1A
102
{ACAD_REACTORS
330
C
102
}
330
C
100
AcDbDictionary
281
     1
  3
Layout1
350
1E
  3
Layout2
350
26
  3
Model
350
22
  0
DICTIONARY
  5
17
102
{ACAD_REACTORS
330
C
102
}
330
C
100
AcDbDictionary
281
     1
  3
Standard
350
18
  0
DICTIONARY
  5
19
102
{ACAD_REACTORS
330
C
102
}
330
C
100
AcDbDictionary
281
     1
  0
ACDBDICTIONARYWDFLT
  5
E
102
{ACAD_REACTORS
330
C
102
}
330
C
100
AcDbDictionary
281
     1
  3
Normal
350
F
100
AcDbDictionaryWithDefault
340
F
  0
DICTIONARY
  5
47
102
{ACAD_REACTORS
330
C
102
}
330
C
100
AcDbDictionary
281
     1
  3
A0
350
48
  3
A1
350
49
  3
A2
350
4A
  3
A3
350
4B
  3
A4
350
4C
  3
A5
350
4D
  3
A6
350
4E
  3
A7
350
4F
  3
A8
350
50
  3
A9
350
51
  3
B0
350
52
  3
B1
350
53
  3
B2
350
54
  3
B3
350
55
  3
B4
350
56
  3
B5
350
57
  3
B6
350
58
  0
XRECORD
  5
FE
102
{ACAD_REACTORS
330
C
102
}
330
C
100
AcDbXrecord
280
     1
  1
DWGPROPS COOKIE
  2

  3

  4

  6

  7

  8
Edgelab
  9

300
=
301
=
302
=
303
=
304
=
305
=
306
=
307
=
308
=
309
=
 40
0.0
 41
2460937.474599607
 42
2460937.474599988
  1

 90
        0
  0
LAYOUT
  5
1E
102
{ACAD_REACTORS
330
1A
102
}
330
1A
100
AcDbPlotSettings
  1

  2
none_device
  4

  6

 40
0.0
 41
0.0
 42
0.0
 43
0.0
 44
0.0
 45
0.0
 46
0.0
 47
0.0
 48
0.0
 49
0.0
140
0.0
141
0.0
142
1.0
143
1.0
 70
   688
 72
     1
 73
     0
 74
     5
  7

 75
    16
147
1.0
148
0.0
149
0.0
100
AcDbLayout
  1
Layout1
 70
     1
 71
     1
 10
0.0
 20
0.0
 11
420.0
 21
297.0
 12
0.0
 22
0.0
 32
0.0
 14
1.0000000000E+20
 24
1.0000000000E+20
 34
1.0000000000E+20
 15
-1.0000000000E+20
 25
-1.0000000000E+20
 35
-1.0000000000E+20
146
0.0
 13
0.0
 23
0.0
 33
0.0
 16
1.0
 26
0.0
 36
0.0
 17
0.0
 27
1.0
 37
0.0
 76
     0
330
1B
  0
LAYOUT
  5
26
102
{ACAD_REACTORS
330
1A
102
}
330
1A
100
AcDbPlotSettings
  1

  2
none_device
  4

  6

 40
0.0
 41
0.0
 42
0.0
 43
0.0
 44
0.0
 45
0.0
 46
0.0
 47
0.0
 48
0.0
 49
0.0
140
0.0
141
0.0
142
1.0
143
1.0
 70
   688
 72
     1
 73
     0
 74
     5
  7

 75
    16
147
1.0
148
0.0
149
0.0
100
AcDbLayout
  1
Layout2
 70
     1
 71
     2
 10
0.0
 20
0.0
 11
0.0
 21
0.0
 12
0.0
 22
0.0
 32
0.0
 14
0.0
 24
0.0
 34
0.0
 15
0.0
 25
0.0
 35
0.0
146
0.0
 13
0.0
 23
0.0
 33
0.0
 16
1.0
 26
0.0
 36
0.0
 17
0.0
 27
1.0
 37
0.0
 76
     0
330
23
  0
LAYOUT
  5
22
102
{ACAD_REACTORS
330
1A
102
}
330
1A
100
AcDbPlotSettings
  1

  2
none_device
  4
Letter_(8.50_x_11.00_Inches)
  6

 40
6.35
 41
6.35
 42
6.35000508
 43
6.35000508
 44
215.9
 45
279.4
 46
0.0
 47
0.0
 48
0.0
 49
0.0
140
0.0
141
0.0
142
1.0
143
1.0
 70
  1712
 72
     1
 73
     0
 74
     0
  7

 75
     0
147
1.0
148
0.0
149
0.0
100
AcDbLayout
  1
Model
 70
     1
 71
     0
 10
0.0
 20
0.0
 11
215.9
 21
279.4
 12
0.0
 22
0.0
 32
0.0
 14
0.0
 24
0.0
 34
0.0
 15
215.9
 25
279.4
 35
0.0
146
0.0
 13
0.0
 23
0.0
 33
0.0
 16
1.0
 26
0.0
 36
0.0
 17
0.0
 27
1.0
 37
0.0
 76
     0
330
1F
331
29
  0
MLINESTYLE
  5
18
102
{ACAD_REACTORS
330
17
102
}
330
17
100
AcDbMlineStyle
  2
Standard
 70
     0
  3

 62
   256
 51
90.0
 52
90.0
 71
     2
 49
0.5
 62
   256
  6
BYLAYER
 49
-0.5
 62
   256
  6
BYLAYER
  0
ACDBPLACEHOLDER
  5
F
102
{ACAD_REACTORS
330
E
102
}
330
E
  0
SCALE
  5
48
102
{ACAD_REACTORS
330
47
102
}
330
47
100
AcDbScale
 70
     0
300
1:1
140
1.0
141
1.0
290
     1
  0
SCALE
  5
49
102
{ACAD_REACTORS
330
47
102
}
330
47
100
AcDbScale
 70
     0
300
1:2
140
1.0
141
2.0
290
     0
  0
SCALE
  5
4A
102
{ACAD_REACTORS
330
47
102
}
330
47
100
AcDbScale
 70
     0
300
1:4
140
1.0
141
4.0
290
     0
  0
SCALE
  5
4B
102
{ACAD_REACTORS
330
47
102
}
330
47
100
AcDbScale
 70
     0
300
1:5
140
1.0
141
5.0
290
     0
  0
SCALE
  5
4C
102
{ACAD_REACTORS
330
47
102
}
330
47
100
AcDbScale
 70
     0
300
1:8
140
1.0
141
8.0
290
     0
  0
SCALE
  5
4D
102
{ACAD_REACTORS
330
47
102
}
330
47
100
AcDbScale
 70
     0
300
1:10
140
1.0
141
10.0
290
     0
  0
SCALE
  5
4E
102
{ACAD_REACTORS
330
47
102
}
330
47
100
AcDbScale
 70
     0
300
1:16
140
1.0
141
16.0
290
     0
  0
SCALE
  5
4F
102
{ACAD_REACTORS
330
47
102
}
330
47
100
AcDbScale
 70
     0
300
1:20
140
1.0
141
20.0
290
     0
  0
SCALE
  5
50
102
{ACAD_REACTORS
330
47
102
}
330
47
100
AcDbScale
 70
     0
300
1:30
140
1.0
141
30.0
290
     0
  0
SCALE
  5
51
102
{ACAD_REACTORS
330
47
102
}
330
47
100
AcDbScale
 70
     0
300
1:40
140
1.0
141
40.0
290
     0
  0
SCALE
  5
52
102
{ACAD_REACTORS
330
47
102
}
330
47
100
AcDbScale
 70
     0
300
1:50
140
1.0
141
50.0
290
     0
  0
SCALE
  5
53
102
{ACAD_REACTORS
330
47
102
}
330
47
100
AcDbScale
 70
     0
300
1:100
140
1.0
141
100.0
290
     0
  0
SCALE
  5
54
102
{ACAD_REACTORS
330
47
102
}
330
47
100
AcDbScale
 70
     0
300
2:1
140
2.0
141
1.0
290
     0
  0
SCALE
  5
55
102
{ACAD_REACTORS
330
47
102
}
330
47
100
AcDbScale
 70
     0
300
4:1
140
4.0
141
1.0
290
     0
  0
SCALE
  5
56
102
{ACAD_REACTORS
330
47
102
}
330
47
100
AcDbScale
 70
     0
300
8:1
140
8.0
141
1.0
290
     0
  0
SCALE
  5
57
102
{ACAD_REACTORS
330
47
102
}
330
47
100
AcDbScale
 70
     0
300
10:1
140
10.0
141
1.0
290
     0
  0
SCALE
  5
58
102
{ACAD_REACTORS
330
47
102
}
330
47
100
AcDbScale
 70
     0
300
100:1
140
100.0
141
1.0
290
     0
  0
ENDSEC
  0
EOF
